<svg version="1.1" id="Layer_1" xmlns="http://www.w3.org/2000/svg" xmlns:xlink="http://www.w3.org/1999/xlink" x="0px" y="0px"
	 width="100%" viewBox="0 0 1654 2339" enable-background="new 0 0 1654 2339" xml:space="preserve">
<path fill="#000000" opacity="1.000000" stroke="none" 
	d="
M965.000000,2340.000000 
	C643.333313,2340.000000 322.166656,2340.000000 1.000000,2340.000000 
	C1.000000,1560.333374 1.000000,780.666687 1.000000,1.000000 
	C552.333313,1.000000 1103.666626,1.000000 1655.000000,1.000000 
	C1655.000000,780.666687 1655.000000,1560.333374 1655.000000,2340.000000 
	C1425.166626,2340.000000 1195.333374,2340.000000 965.000000,2340.000000 
M1023.980591,895.608215 
	C1024.301636,895.767273 1024.622681,895.926392 1024.960449,896.017700 
	C1024.960449,896.017700 1024.892700,896.034607 1024.515381,896.809143 
	C1011.388000,896.857056 998.246948,896.584045 985.141113,897.140381 
	C980.986572,897.316772 976.925842,899.705383 972.268921,901.430237 
	C969.338440,903.513611 965.717773,905.060364 963.604248,907.778870 
	C956.706482,916.651184 955.274231,927.382507 958.301758,937.590820 
	C963.098572,953.765137 979.908508,960.192078 994.531616,957.843933 
	C1002.143982,957.894226 1009.756409,957.944580 1017.473938,958.037476 
	C1017.473938,958.037476 1017.517822,957.932861 1018.072998,958.688599 
	C1027.029175,958.812317 1035.985229,958.954834 1044.941895,959.010742 
	C1045.452393,959.013916 1045.967529,958.309204 1046.524658,958.037598 
	C1046.524658,958.037598 1046.629028,957.994751 1047.616455,957.994934 
	C1050.923462,957.654907 1054.230347,957.314819 1058.248657,957.038086 
	C1075.059448,952.761353 1081.188354,940.476562 1081.868286,925.261658 
	C1082.597900,908.932495 1073.181519,897.064270 1062.249756,886.823975 
	C1054.302856,879.379822 1044.703979,873.699341 1035.879395,866.454529 
	C1030.701172,861.015564 1022.387451,860.389465 1015.988525,864.985352 
	C1015.988525,864.985352 1015.958496,864.919250 1015.401733,865.025391 
	C1015.240906,865.347961 1015.080078,865.670532 1014.994751,865.994324 
	C1014.994751,865.994324 1014.995361,865.918762 1014.437439,866.038757 
	C1014.265503,866.360596 1014.093567,866.682434 1014.003540,867.003601 
	C1014.003540,867.003601 1014.003662,866.921692 1013.444946,867.034729 
	C1013.268738,867.353943 1013.092529,867.673157 1012.987122,867.989746 
	C1012.987122,867.989746 1012.982544,867.919128 1012.298340,868.092712 
	C1012.238953,868.538940 1012.179565,868.985107 1012.018127,869.524597 
	C1012.018127,869.524597 1012.100037,869.635803 1011.422180,869.965576 
	C1011.323914,870.665527 1011.225647,871.365479 1011.054016,872.952454 
	C1010.106018,882.147522 1013.228333,889.124146 1022.083862,893.555542 
	C1022.383179,893.732422 1022.682495,893.909302 1022.984253,894.017029 
	C1022.984253,894.017029 1022.915283,894.022583 1022.989075,894.591125 
	C1023.311829,894.755920 1023.634583,894.920776 1023.979980,895.019470 
	C1023.979980,895.019470 1023.914307,895.043518 1023.980591,895.608215 
M603.978577,846.020325 
	C603.978577,846.020325 604.064026,846.046265 603.971924,845.453003 
	C603.632690,845.280579 603.293518,845.108154 602.981140,845.018860 
	C602.981140,845.018860 603.064209,845.045776 602.972168,844.452576 
	C602.632996,844.280273 602.293762,844.107971 601.981018,844.018799 
	C601.981018,844.018799 602.064148,844.045166 601.976990,843.449219 
	C601.636414,843.278076 601.295837,843.106873 600.981201,843.018677 
	C600.981201,843.018677 601.064270,843.044250 600.980286,842.452271 
	C600.643188,842.280823 600.306152,842.109375 599.986267,842.017517 
	C599.986267,842.017517 600.067139,842.026794 599.841125,841.237793 
	C598.655029,840.780090 597.481628,839.965637 596.280823,839.923157 
	C589.015198,839.666260 581.743408,839.585754 573.426392,839.268433 
	C567.965515,838.849487 562.504700,838.430481 556.629211,837.246643 
	C552.671326,837.144653 548.713379,837.042603 544.650146,836.959167 
	C544.650146,836.959167 544.560608,837.017700 544.116211,836.404297 
	C543.557251,836.608459 542.998230,836.812683 542.147339,836.979309 
	C541.950256,836.966797 541.754761,836.979370 541.116272,836.404297 
	C540.557251,836.608582 539.998230,836.812866 539.147278,836.979675 
	C538.950256,836.967163 538.754883,836.979736 538.116516,836.403809 
	C537.557434,836.608154 536.998413,836.812500 536.373230,836.956604 
	C536.373230,836.956604 536.286438,836.935120 535.310669,837.069458 
	C523.863770,836.171448 512.555420,837.509399 501.480896,840.105042 
	C494.365326,841.772766 487.541992,844.687317 480.357635,846.985596 
	C480.357635,846.985596 480.121704,846.962585 479.343842,846.925476 
	C475.897705,848.945984 472.451569,850.966492 468.533325,853.475403 
	C447.973450,864.764282 433.390930,881.849915 422.525635,902.161804 
	C418.117401,910.402649 415.192627,919.452942 411.787750,928.210693 
	C407.402924,939.488892 406.791077,951.176819 408.975159,962.969788 
	C410.079651,968.933655 412.581360,974.337158 418.032410,978.529297 
	C418.366486,978.706909 418.700531,978.884521 419.016571,978.981750 
	C419.016571,978.981750 418.934998,978.970093 419.052124,979.696472 
	C419.510681,979.819153 419.969208,979.941833 420.459503,980.023987 
	C420.459503,980.023987 420.429688,979.981995 420.996918,980.585327 
	C428.187408,983.494019 435.457458,985.163635 443.742035,981.876160 
	C448.052887,978.880432 452.600189,976.164673 456.592712,972.792114 
	C459.322723,970.485840 460.396057,966.930969 457.397491,963.970703 
	C448.132141,954.824036 449.168945,944.131104 452.989197,933.372498 
	C456.743073,922.800903 461.294495,912.510315 465.572235,902.127808 
	C467.308197,897.914429 471.127319,896.037292 474.761261,897.527771 
	C479.323761,899.399048 478.498138,903.101257 477.166412,906.385315 
	C474.243011,913.594238 470.522217,920.499939 467.910187,927.809265 
	C465.423492,934.768005 463.650391,942.022827 462.118195,949.264832 
	C461.319397,953.040527 463.539764,955.847168 467.105072,957.608337 
	C470.554016,959.312134 473.833344,959.725403 476.863586,957.058228 
	C479.597382,954.652039 482.653107,952.368408 484.650818,949.411865 
	C492.652985,937.568542 500.020935,925.292236 508.152435,913.542114 
	C516.702942,901.186523 526.322998,889.731323 539.927307,882.440308 
	C544.459534,880.011169 548.954163,877.511780 554.377319,874.941772 
	C555.440369,874.624878 556.503479,874.307983 557.500427,873.990967 
	C557.500427,873.990967 557.457886,874.041565 558.318054,874.094055 
	C574.851990,868.531250 591.770569,864.711365 609.991089,863.024780 
	C614.320862,862.607727 618.650574,862.190613 623.980774,861.677185 
	C622.480774,860.299500 621.735718,859.615295 620.989441,859.006897 
	C620.989441,859.006897 621.065247,859.008850 620.977295,858.329163 
	C620.334473,858.227661 619.691589,858.126221 618.426453,857.719055 
	C614.143433,854.154663 609.860413,850.590271 605.088989,846.558167 
	C604.707886,846.351196 604.326843,846.144226 603.978577,846.020325 
M891.546265,1341.927368 
	C891.685303,1341.603394 891.824280,1341.279297 891.914856,1340.245972 
	C892.416138,1339.983398 892.912354,1339.708496 893.433289,1339.493408 
	C893.459778,1339.482422 893.698730,1339.985840 893.838684,1340.249756 
	C893.249756,1340.522583 892.660828,1340.795410 891.462524,1341.011841 
	C891.316040,1341.348877 891.169556,1341.685791 890.417908,1341.988403 
	C890.289307,1342.336670 890.160706,1342.684937 889.419617,1343.032715 
	C889.329468,1343.386719 889.239319,1343.740845 888.827820,1344.128662 
	C888.906616,1344.089600 888.985413,1344.050415 889.595886,1343.914917 
	C889.720337,1343.600586 889.844727,1343.286377 890.536621,1342.942627 
	C890.685364,1342.622192 890.834167,1342.301880 891.546265,1341.927368 
M696.965820,1699.986206 
	C696.965820,1699.986206 696.950439,1700.000610 696.824036,1700.494141 
	C697.096313,1700.912598 697.368591,1701.330933 698.183472,1701.987915 
	C698.379944,1702.008789 698.576477,1702.029785 699.057556,1702.612549 
	C699.441345,1702.724121 699.825073,1702.835815 700.421326,1703.037354 
	C700.421326,1703.037354 700.639160,1702.961182 701.042236,1703.651611 
	C716.063477,1710.499146 731.026062,1711.331787 746.632202,1703.052734 
	C764.563477,1694.296265 774.210693,1680.079102 775.820679,1659.734497 
	C775.889526,1658.077026 776.018616,1656.419678 776.018677,1654.762207 
	C776.028076,1433.963623 776.030151,1213.165039 775.985840,992.366516 
	C775.985535,990.905273 775.338806,989.444214 774.956421,987.074341 
	C774.934143,973.233276 771.370056,960.085022 766.192932,947.468567 
	C763.103271,939.939148 758.999573,932.712830 754.524231,925.893188 
	C748.678406,916.985107 742.158875,908.590637 732.801270,902.736694 
	C726.169556,898.588074 720.594421,892.533752 713.663940,889.128662 
	C702.264648,883.527832 690.492859,878.408142 677.135132,875.998047 
	C675.677979,875.644104 674.220825,875.290161 672.736755,874.190308 
	C671.503723,874.165894 670.270630,874.141541 668.147583,873.969910 
	C666.927246,873.982239 665.706909,873.994507 664.460632,874.053101 
	C664.460632,874.053101 664.507874,874.077271 663.932007,873.336548 
	C649.641235,873.209656 635.350464,873.070862 621.059387,873.004578 
	C620.553833,873.002197 620.044983,873.718872 619.495117,873.999084 
	C619.495117,873.999084 619.393921,874.042114 618.381409,874.040771 
	C604.397217,873.438110 590.790894,876.152405 577.323059,879.295471 
	C570.994690,880.772339 565.017212,883.753113 558.231506,886.355469 
	C554.078247,888.232178 549.882019,890.019958 545.780273,892.003235 
	C535.578918,896.935730 526.064941,902.795105 519.827698,912.684387 
	C510.775879,927.036133 501.982727,941.554993 492.709290,955.761047 
	C488.620544,962.024475 483.077393,966.876587 475.517731,969.061157 
	C473.072052,969.767944 470.816315,971.392334 468.693237,972.904968 
	C462.795563,977.107361 461.492249,983.740845 459.211670,990.119080 
	C451.624298,1011.338867 450.263733,1033.315674 450.046967,1055.502319 
	C449.996552,1060.665405 450.049500,1065.829468 449.186737,1071.239502 
	C449.092346,1071.891724 448.915497,1072.544067 448.915344,1073.196289 
	C448.902100,1131.034546 448.896088,1188.872681 448.949951,1246.710938 
	C448.950958,1247.809082 449.671326,1248.906494 450.084564,1250.940674 
	C450.087769,1275.910034 450.090240,1300.879395 450.094482,1325.848755 
	C450.096741,1339.152710 454.495178,1350.169189 467.296814,1355.903076 
	C474.729401,1359.232056 482.978607,1361.082764 490.810394,1357.828735 
	C508.989929,1350.275757 513.455444,1335.527466 511.347046,1316.909668 
	C511.066986,1313.915161 510.786926,1310.920776 510.958038,1306.162720 
	C511.119720,1305.577881 511.281403,1304.992920 511.483459,1304.447266 
	C511.483459,1304.447266 511.442993,1304.591309 510.963501,1302.865601 
	C510.816559,1302.286987 510.669617,1301.708252 510.466492,1300.753906 
	C510.602295,1300.274902 510.857544,1299.795654 510.856689,1299.316895 
	C510.822052,1280.039429 510.737396,1260.762085 510.716736,1241.484619 
	C510.694092,1220.362061 510.727722,1199.239502 510.847656,1177.170898 
	C510.875610,1165.341919 510.953583,1153.512695 510.921722,1141.683838 
	C510.840057,1111.361816 510.709625,1081.039917 510.898895,1049.856201 
	C511.563110,1046.334351 512.236084,1042.814087 512.889709,1039.290283 
	C514.267151,1031.864014 519.582764,1029.694458 525.649841,1034.216187 
	C527.026001,1035.241943 527.993774,1036.815552 529.049866,1039.055420 
	C529.029053,1071.873779 528.976624,1104.692017 528.994873,1137.510376 
	C529.021423,1185.319336 529.098877,1233.128418 528.981750,1281.868530 
	C529.020081,1365.844360 529.083923,1449.820190 529.085938,1533.796021 
	C529.086975,1575.780762 528.966553,1617.765625 528.960632,1659.750366 
	C528.960449,1660.874390 529.646606,1661.998413 530.075134,1663.850952 
	C530.144836,1664.332275 530.214600,1664.813721 530.272583,1665.716309 
	C530.446899,1666.050293 530.621216,1666.384277 530.953552,1667.584473 
	C532.818665,1684.200439 542.123413,1695.223145 557.236328,1702.788696 
	C559.043152,1703.643311 560.803040,1704.620850 562.664551,1705.332397 
	C572.980774,1709.275024 583.439087,1711.001953 594.930542,1706.988770 
	C598.358093,1705.480591 601.856873,1704.114746 605.201355,1702.440552 
	C623.068481,1693.495972 632.051025,1678.816528 633.834045,1658.704590 
	C633.899841,1658.045410 634.023438,1657.386230 634.023315,1656.727051 
	C634.008789,1591.244385 634.009094,1525.761597 633.951965,1460.278931 
	C633.920837,1424.623657 633.791321,1388.968506 634.043396,1352.623047 
	C634.396729,1351.704590 634.715759,1350.770996 635.108887,1349.869995 
	C638.004517,1343.232178 647.724365,1336.490601 653.504944,1337.094360 
	C662.039856,1337.985962 669.353455,1345.088745 671.125366,1355.181641 
	C671.100037,1355.513550 671.052673,1355.845581 671.052490,1356.177490 
	C670.998901,1457.227417 670.945496,1558.277466 670.946533,1659.327393 
	C670.946533,1660.266357 671.675598,1661.205322 672.015503,1662.954102 
	C673.298340,1668.000244 673.887146,1673.362061 676.009705,1678.026123 
	C680.318237,1687.493408 686.057068,1696.025146 696.708191,1700.209229 
	C696.708191,1700.209229 696.986450,1699.989380 696.965820,1699.986206 
M567.246094,680.170593 
	C567.322083,680.399109 567.477539,680.540527 568.450012,680.908875 
	C573.253479,682.637512 578.038879,684.418823 582.867554,686.073853 
	C585.487915,686.971985 587.189331,688.326721 586.877197,691.425964 
	C586.019531,699.940918 585.282288,708.468018 584.418762,716.982300 
	C583.738159,723.693665 582.940735,730.393188 582.031433,738.570618 
	C596.890686,720.059753 615.795593,711.116516 637.428589,705.550110 
	C639.360840,705.375732 641.297363,705.239685 643.224548,705.020386 
	C652.211975,703.997986 661.188354,702.208923 670.184814,702.106262 
	C681.108521,701.981689 692.114868,702.750183 702.958679,704.129089 
	C710.633545,705.104980 718.097900,707.735474 726.394714,709.921265 
	C741.459900,715.365356 754.092224,724.576416 766.051636,735.572632 
	C766.318359,731.055542 766.086365,726.764709 765.603577,722.502319 
	C764.454651,712.359253 763.256653,702.220581 761.928772,692.099731 
	C761.482300,688.696411 763.557434,687.138245 766.037781,686.214661 
	C774.685547,682.994263 783.481689,680.169678 792.111633,676.904602 
	C800.229065,673.833374 808.207764,670.395203 816.817810,667.035950 
	C820.709412,665.666321 824.601074,664.296753 828.531860,662.983032 
	C828.531860,662.983032 828.580994,662.935730 829.432983,662.966675 
	C831.783997,661.954224 834.135071,660.941772 836.540344,659.990234 
	C836.540344,659.990234 836.600769,659.935486 837.436279,659.964172 
	C839.645325,658.982544 841.854431,658.000977 844.822876,656.949280 
	C846.011353,656.529175 847.199768,656.109070 848.819397,655.194336 
	C849.240784,654.350098 849.662170,653.505859 850.131226,652.566040 
	C837.563660,649.310425 825.271362,646.073730 812.947266,642.963013 
	C808.808167,641.918152 804.588074,641.193726 799.232971,639.930298 
	C798.843506,639.795837 798.454041,639.661377 797.923523,639.440857 
	C797.762634,639.376526 797.596313,639.335205 796.712219,638.966919 
	C784.464722,634.010559 772.097351,629.328735 759.993408,624.043579 
	C729.992737,610.943848 702.511230,594.015625 679.799438,570.042175 
	C675.426025,565.425781 674.042358,565.647583 669.214844,569.949280 
	C660.611694,577.615234 651.825256,585.078369 643.021484,592.515076 
	C639.385864,595.586121 635.507507,598.369873 631.058350,601.187317 
	C630.015259,601.789490 628.972229,602.391663 628.009338,603.007080 
	C628.009338,603.007080 628.023315,602.926941 627.273315,603.002563 
	C624.158752,605.002869 621.044189,607.003113 618.014526,609.013794 
	C618.014526,609.013794 618.026184,608.929077 617.279724,609.002380 
	C615.165039,610.337708 613.050354,611.673035 611.019836,613.024109 
	C611.019836,613.024109 611.037170,612.940308 610.286682,613.065796 
	C603.191162,616.713745 596.095703,620.361633 588.338379,624.278015 
	C586.500244,625.272766 584.662048,626.267578 582.034912,627.199524 
	C580.941162,627.316223 579.741943,627.180359 578.769043,627.586548 
	C555.935181,637.121033 532.408447,644.449707 508.294922,649.952148 
	C504.420502,650.836243 500.608734,651.994873 496.767975,653.026550 
	C496.762115,653.646912 496.756256,654.267273 496.750397,654.887695 
	C501.050812,656.184692 505.351227,657.481750 510.351532,659.101807 
	C512.154602,659.898315 513.892212,660.936523 515.773071,661.446106 
	C521.470703,662.989746 523.557251,666.516846 523.132507,672.385437 
	C522.190369,685.401855 521.616272,698.445740 520.953308,711.481506 
	C520.282715,724.667603 519.879150,737.870483 518.987488,751.040955 
	C518.410583,759.561584 517.101807,768.030579 516.239990,776.534729 
	C515.336853,785.447021 514.575928,794.373718 513.806702,802.710510 
	C518.808228,803.182617 523.366394,803.612854 528.256836,804.751160 
	C529.406799,805.163269 530.556702,805.575439 531.729553,805.995789 
	C531.729553,783.093750 531.729553,760.516846 531.924866,737.040161 
	C531.798523,714.566956 531.672180,692.093750 532.191467,669.173157 
	C534.017334,669.244263 535.925415,669.002625 537.650879,669.455872 
	C540.641724,670.241394 543.519470,671.457336 546.377014,672.497192 
	C546.377014,672.497192 546.282104,672.393433 546.935547,672.834045 
	C547.196411,672.865723 547.457214,672.897461 548.089111,673.622681 
	C550.525330,674.393616 552.961487,675.164551 555.458740,675.990479 
	C555.458740,675.990479 555.513184,675.929016 556.020264,676.563477 
	C559.605164,677.718445 563.190063,678.873352 566.954834,680.104980 
	C566.954834,680.104980 567.035950,679.927002 567.246094,680.170593 
M971.002136,607.520386 
	C970.605286,607.418274 970.208496,607.316101 969.811646,607.213928 
	C969.828613,607.465149 969.828918,607.931641 969.865173,607.934509 
	C970.257080,607.964905 970.654663,607.922363 971.141357,608.569092 
	C977.471436,611.837769 983.801514,615.106384 990.131592,618.375061 
	C990.341736,617.935425 990.551880,617.495789 990.761963,617.056152 
	C984.164734,614.045593 977.567505,611.034973 971.002136,607.520386 
M810.850159,1703.147827 
	C810.311646,1702.954346 809.773132,1702.760864 809.234619,1702.567383 
	C809.355652,1702.325195 809.476624,1702.082886 809.597656,1701.840576 
	C810.148743,1702.188965 810.699829,1702.537476 811.117126,1703.716553 
	C811.237793,1704.131836 811.287170,1704.870972 811.489441,1704.915405 
	C817.367981,1706.209351 823.213135,1707.924194 829.168518,1708.514771 
	C833.955872,1708.989258 838.879517,1708.089233 843.742737,1707.799194 
	C832.597229,1707.556152 821.466064,1708.434937 810.850159,1703.147827 
M1050.202393,798.406799 
	C1049.845581,797.751892 1049.180054,797.098755 1049.176514,796.441895 
	C1049.052490,773.697144 1048.990967,750.951965 1048.988281,727.240051 
	C1048.988281,716.698792 1048.988281,706.157532 1048.988281,695.616333 
	C1048.690308,695.616821 1048.392212,695.617371 1048.094238,695.617920 
	C1048.094238,706.493347 1048.094238,717.368835 1048.268311,729.137268 
	C1048.268311,752.975403 1048.268311,776.813477 1048.268311,801.699707 
	C1049.452271,800.108093 1050.240112,799.048950 1050.955200,797.804260 
	C1050.955200,797.804260 1051.283203,797.884583 1051.283203,797.884583 
	C1051.283203,797.884583 1051.004639,797.938477 1050.202393,798.406799 
M923.013855,1391.216064 
	C923.013855,1381.656494 923.013855,1372.096924 923.013855,1362.537354 
	C922.742737,1362.535889 922.471558,1362.534424 922.200439,1362.533081 
	C922.200439,1372.409912 922.200439,1382.286743 922.122131,1393.077515 
	C922.135559,1422.002930 922.148987,1450.928345 921.972290,1480.792847 
	C921.972290,1539.864380 921.972290,1598.935913 921.972290,1658.007446 
	C922.750305,1657.707031 922.944885,1657.403320 922.944824,1657.099609 
	C922.941284,1621.814209 922.926636,1586.528687 922.904907,1551.243286 
	C922.890320,1527.446167 922.864563,1503.649048 922.926575,1478.943726 
	C922.886169,1450.016235 922.845764,1421.088745 923.013855,1391.216064 
M1106.027954,1196.042725 
	C1106.027954,1208.805298 1106.027954,1221.567993 1106.027954,1234.330566 
	C1106.313477,1234.328125 1106.598999,1234.325684 1106.884521,1234.323242 
	C1106.884521,1221.258789 1106.884521,1208.194214 1107.061768,1194.190674 
	C1107.061768,1154.436646 1107.061768,1114.682739 1107.061768,1074.928711 
	C1106.198975,1075.866577 1106.059570,1076.821167 1106.060303,1077.775635 
	C1106.071289,1092.091553 1106.117676,1106.407593 1106.122192,1120.723511 
	C1106.130005,1145.526489 1106.114380,1170.329468 1106.027954,1196.042725 
M1009.734192,625.329285 
	C1006.895996,624.141968 1004.057861,622.954651 1001.219666,621.767334 
	C1001.061523,622.230896 1000.903381,622.694519 1000.745239,623.158081 
	C1003.854675,624.081848 1006.964111,625.005615 1010.234253,626.612366 
	C1033.171265,633.934570 1056.108276,641.256836 1079.194092,648.626526 
	C1072.956055,651.221130 1066.682251,653.830627 1060.408325,656.440125 
	C1060.423950,656.518921 1060.439575,656.597778 1060.455200,656.676575 
	C1068.081055,654.068604 1075.706909,651.460571 1083.332764,648.852600 
	C1083.254883,648.346375 1083.176880,647.840088 1083.098999,647.333862 
	C1081.661621,646.862854 1080.242676,646.322571 1078.783936,645.931458 
	C1063.941528,641.952148 1049.046875,638.158142 1034.263428,633.971619 
	C1026.081055,631.654358 1018.081543,628.691650 1009.734192,625.329285 
M623.583435,720.150940 
	C623.356384,720.374939 623.085571,720.442871 621.973145,720.264526 
	C617.590393,722.208923 613.117188,723.974426 608.842957,726.133606 
	C598.749146,731.232605 591.556458,738.804443 589.959351,750.440186 
	C588.285645,762.634827 585.785217,774.786743 587.977661,787.237976 
	C589.846252,797.850342 592.259216,808.126404 597.790527,817.651489 
	C602.158447,825.173157 607.789429,831.358704 613.817383,837.462524 
	C621.600098,845.343018 630.624390,851.041992 641.150330,855.750183 
	C642.601257,856.161377 644.052124,856.572571 645.482300,856.955872 
	C645.482300,856.955872 645.451233,856.971680 645.974121,857.620972 
	C657.509766,862.030701 669.534668,863.286560 681.654480,861.890869 
	C688.585693,861.092712 695.333557,858.702271 702.890137,856.929077 
	C708.143860,854.622192 713.831360,852.971252 718.547913,849.852112 
	C725.349976,845.354004 731.518982,839.876831 737.827637,834.659668 
	C746.862732,827.187744 752.064819,817.130127 756.185608,806.453918 
	C762.087097,791.164124 763.250305,775.337524 760.944946,759.215637 
	C759.482178,748.986816 756.354309,739.250244 748.654663,732.022400 
	C740.829773,724.676941 730.658447,721.492004 720.476929,718.328674 
	C720.476929,718.328674 720.330811,718.334900 719.472534,718.142029 
	C718.895325,718.039978 718.318115,717.937927 717.912048,717.068726 
	C708.365540,715.016296 698.900635,712.289368 689.247192,711.120056 
	C681.206055,710.146057 672.941833,711.122925 664.779297,711.017029 
	C651.218201,710.841248 638.140198,712.982666 624.644714,719.244751 
	C624.332825,719.525452 624.020935,719.806152 623.583435,720.150940 
M788.029114,1507.500000 
	C788.029114,1334.524292 788.029114,1161.548706 788.029114,988.572998 
	C787.856567,988.572937 787.683960,988.572876 787.511414,988.572815 
	C787.511414,1213.008545 787.511414,1437.444214 787.511414,1661.880005 
	C787.683899,1661.880371 787.856323,1661.880859 788.028809,1661.881226 
	C788.028809,1610.754150 788.028809,1559.627075 788.029114,1507.500000 
M762.256348,858.908081 
	C837.459534,867.088196 912.662659,875.268311 987.865845,883.448364 
	C984.608459,882.297668 981.276001,882.272583 977.986938,881.881653 
	C970.618774,881.005981 963.277649,879.905334 955.914673,878.982666 
	C952.209167,878.518311 948.466309,878.346680 944.764526,877.859131 
	C937.739075,876.933777 930.747864,875.730713 923.710876,874.914673 
	C916.614746,874.091736 909.458801,873.776672 902.367981,872.917786 
	C892.441345,871.715576 882.571777,870.031372 872.638184,868.901489 
	C864.720093,868.000793 856.719360,867.831970 848.797302,866.958069 
	C838.100159,865.777893 827.463745,864.041382 816.763367,862.898193 
	C805.619812,861.707642 794.430481,860.947205 783.262695,859.980957 
	C779.536987,859.658630 775.813110,859.309509 772.093506,858.923706 
	C762.915833,857.971741 753.752014,856.863159 744.560242,856.080017 
	C740.354614,855.721680 736.095398,855.928406 731.862793,856.005798 
	C731.008606,856.021423 730.164795,856.608582 729.316162,856.932190 
	C732.424194,857.090698 735.316101,855.824280 738.093262,856.039307 
	C745.871155,856.641541 753.601624,857.855713 762.256348,858.908081 
M1045.004639,1092.499268 
	C1045.004639,1075.075562 1045.004639,1057.651855 1045.004639,1040.228027 
	C1044.737793,1040.229980 1044.470947,1040.231934 1044.204102,1040.233887 
	C1044.204102,1135.921875 1044.204102,1231.609741 1044.204102,1327.297729 
	C1044.466797,1327.297974 1044.729492,1327.298218 1044.992188,1327.298462 
	C1044.992188,1249.365479 1044.992188,1171.432495 1045.004639,1092.499268 
M1027.065674,1444.643188 
	C1027.065674,1442.352539 1027.065674,1440.062012 1027.065674,1437.771362 
	C1026.798584,1437.773926 1026.531616,1437.776489 1026.264526,1437.779053 
	C1026.264526,1511.629883 1026.264526,1585.480713 1026.264526,1659.331421 
	C1026.524414,1659.331665 1026.784180,1659.331909 1027.044067,1659.332031 
	C1027.044067,1588.089844 1027.044067,1516.847778 1027.065674,1444.643188 
M1063.792358,966.522766 
	C1058.897705,967.367188 1054.012695,968.870300 1049.106812,968.941162 
	C1028.658325,969.236694 1008.203369,969.151367 987.751343,969.069824 
	C984.707764,969.057739 981.667114,968.320557 978.625122,967.918823 
	C979.856628,969.160034 981.245117,969.672852 982.634583,969.675415 
	C1006.568481,969.718994 1030.505127,969.884460 1054.434204,969.543030 
	C1059.405151,969.472168 1064.348511,967.470886 1069.304443,966.359314 
	C1069.184692,965.886047 1069.064941,965.412720 1068.945190,964.939453 
	C1067.427368,965.285400 1065.909668,965.631409 1063.792358,966.522766 
M920.400635,704.930420 
	C904.073303,706.033264 887.517029,703.233826 871.392090,707.897278 
	C866.451843,709.325989 861.427185,710.462952 856.441162,711.733459 
	C856.525085,712.196472 856.609070,712.659485 856.693054,713.122437 
	C886.722229,703.945801 916.982666,703.289978 947.463379,710.747864 
	C947.528381,710.147217 947.593384,709.546570 947.658386,708.945923 
	C938.895935,707.603577 930.133484,706.261169 920.400635,704.930420 
M884.948792,1623.500000 
	C884.948792,1601.920288 884.948792,1580.340698 884.948792,1558.760986 
	C884.704163,1558.763428 884.459595,1558.765869 884.214966,1558.768311 
	C884.214966,1591.947998 884.214966,1625.127563 884.214966,1658.307129 
	C884.455872,1658.308472 884.696838,1658.309814 884.937744,1658.311157 
	C884.937744,1647.040771 884.937744,1635.770386 884.948792,1623.500000 
M817.941223,619.397339 
	C818.819275,618.819763 819.697388,618.242249 820.575500,617.664673 
	C820.436768,617.443115 820.298035,617.221558 820.159302,617.000000 
	C813.374268,619.870239 806.589233,622.740540 799.804138,625.610840 
	C799.691956,626.182556 799.579773,626.754272 799.467590,627.325989 
	C808.347473,630.384827 817.227356,633.443665 826.107239,636.502502 
	C826.190186,636.255676 826.273132,636.008789 826.356079,635.761963 
	C818.470947,632.808960 810.585815,629.855957 801.598572,626.490173 
	C807.591309,623.882507 812.432312,621.775940 817.941223,619.397339 
M955.693176,1704.241211 
	C953.346619,1703.260376 951.000122,1702.279663 947.593628,1700.855835 
	C958.440979,1710.421875 987.963257,1710.419067 994.764709,1703.617432 
	C981.762390,1708.467896 969.134521,1709.073120 955.693176,1704.241211 
M915.176392,696.075378 
	C917.062195,696.435120 918.934875,696.909424 920.836914,697.127563 
	C923.577576,697.441895 926.357788,697.435242 929.088562,697.806152 
	C934.848572,698.588379 940.587524,699.526672 946.335144,700.400940 
	C929.536377,695.012207 912.284851,694.578857 894.908875,695.952026 
	C901.348633,695.952026 907.788452,695.952026 915.176392,696.075378 
M1006.727112,676.976074 
	C1014.436646,674.114197 1022.146240,671.252380 1029.855835,668.390503 
	C1029.746094,668.094666 1029.636230,667.798828 1029.526489,667.502991 
	C1017.732483,672.044006 1005.938538,676.585083 994.144592,681.126160 
	C994.073242,680.899841 994.001831,680.673584 993.930481,680.447327 
	C997.922974,679.273865 1001.915405,678.100464 1006.727112,676.976074 
M867.833801,646.934326 
	C858.450928,644.552979 849.068054,642.171570 839.685242,639.790161 
	C839.577026,640.233337 839.468811,640.676514 839.360657,641.119690 
	C851.094421,644.061279 862.828186,647.002808 874.561951,649.944336 
	C874.673706,649.487366 874.785400,649.030334 874.897156,648.573303 
	C872.804688,648.082642 870.712219,647.591919 867.833801,646.934326 
M1105.878906,1314.488281 
	C1105.878906,1302.002075 1105.878906,1289.515747 1105.878906,1277.029541 
	C1105.688721,1277.029297 1105.498535,1277.029175 1105.308350,1277.029053 
	C1105.308350,1293.942505 1105.308350,1310.855957 1105.308350,1327.769409 
	C1105.498535,1327.772339 1105.688599,1327.775146 1105.878784,1327.777954 
	C1105.878784,1323.678955 1105.878784,1319.579956 1105.878906,1314.488281 
M883.739136,852.123352 
	C880.933105,851.338379 878.127014,850.553467 875.320984,849.768494 
	C875.194397,850.364868 875.067871,850.961304 874.941345,851.557678 
	C883.861084,853.381287 892.780884,855.204895 901.700623,857.028503 
	C901.795166,856.566040 901.889709,856.103577 901.984314,855.641113 
	C896.172119,854.532837 890.359985,853.424561 883.739136,852.123352 
M882.977722,1400.488281 
	C882.977722,1404.708252 882.977722,1408.928101 882.977722,1413.148071 
	C883.223877,1413.132324 883.470093,1413.116577 883.716248,1413.100952 
	C883.716248,1401.635376 883.716248,1390.169800 883.716248,1377.947388 
	C883.272461,1378.996216 883.041748,1379.288452 883.040161,1379.582031 
	C883.004089,1386.218750 882.993225,1392.855591 882.977722,1400.488281 
M917.442200,854.342957 
	C914.681213,854.695984 911.920227,855.049011 909.159241,855.401978 
	C909.232788,855.855408 909.306396,856.308899 909.379944,856.762329 
	C916.577393,855.594299 923.774780,854.426331 930.972229,853.258362 
	C930.891785,852.759827 930.811279,852.261292 930.730835,851.762817 
	C926.584778,852.578613 922.438660,853.394409 917.442200,854.342957 
M879.474487,698.091736 
	C883.931946,697.568298 888.389343,697.044861 892.846802,696.521423 
	C892.788025,696.062134 892.729309,695.602844 892.670532,695.143616 
	C884.966064,696.103516 877.261597,697.063354 869.557190,698.023254 
	C869.602295,698.390930 869.647400,698.758545 869.692566,699.126160 
	C872.650146,698.765625 875.607788,698.405029 879.474487,698.091736 
M905.927429,1336.732788 
	C902.723083,1337.070557 899.518799,1337.408203 897.536438,1337.617065 
	C902.481567,1338.238159 908.338806,1338.973877 913.863953,1339.667847 
	C911.763367,1338.893921 909.223022,1337.958130 905.927429,1336.732788 
M824.338623,615.573303 
	C830.179321,613.126221 836.020020,610.679077 841.860718,608.231995 
	C841.645020,607.768738 841.429260,607.305420 841.213562,606.842163 
	C835.758179,609.583862 830.302795,612.325562 824.338623,615.573303 
M859.874268,660.349792 
	C855.565125,662.001587 851.255981,663.653381 846.946838,665.305176 
	C847.107727,665.711548 847.268677,666.117859 847.429565,666.524170 
	C853.526611,664.260498 859.623596,661.996826 865.720642,659.733154 
	C865.647461,659.469116 865.574341,659.205017 865.501160,658.940979 
	C863.839172,659.263245 862.177124,659.585510 859.874268,660.349792 
M822.940063,616.572815 
	C822.714539,616.572449 822.489075,616.572144 822.263550,616.571777 
	C822.376038,616.678894 822.488586,616.786011 822.940063,616.572815 
M887.106384,1346.438599 
	C887.290405,1346.505371 887.474426,1346.572144 887.658447,1346.638916 
	C887.599182,1346.444702 887.539978,1346.250366 887.106384,1346.438599 
M904.500000,857.000000 
	C904.633301,856.799988 904.766663,856.600037 904.900024,856.400024 
	C904.600037,856.433350 904.299988,856.466675 904.500000,857.000000 
M906.500000,857.000000 
	C906.633362,856.799988 906.766663,856.600037 906.900024,856.400024 
	C906.600037,856.433350 906.299988,856.466675 906.500000,857.000000 
M1057.473511,657.495728 
	C1057.473511,657.495728 1057.502563,657.535278 1057.473511,657.495728 
z"/>
<path fill="#861719" opacity="1.000000" stroke="none" 
	d="
M677.771545,876.230164 
	C690.492859,878.408142 702.264648,883.527832 713.663940,889.128662 
	C720.594421,892.533752 726.169556,898.588074 732.801270,902.736694 
	C742.158875,908.590637 748.678406,916.985107 754.524231,925.893188 
	C758.999573,932.712830 763.103271,939.939148 766.192932,947.468567 
	C771.370056,960.085022 774.934143,973.233276 774.939209,987.991455 
	C774.948608,1098.341064 774.986633,1207.773682 774.998779,1317.206299 
	C775.011414,1431.478027 774.999207,1545.749756 774.997864,1660.021484 
	C774.210693,1680.079102 764.563477,1694.296265 746.006226,1703.052490 
	C737.078064,1704.470093 728.790833,1706.867188 720.468933,1706.994141 
	C713.881042,1707.094604 707.250671,1704.409424 700.639160,1702.961182 
	C700.639160,1702.961182 700.421326,1703.037354 700.196655,1702.691772 
	C699.572327,1702.247681 699.172668,1702.149170 698.772949,1702.050659 
	C698.576477,1702.029785 698.379944,1702.008789 697.821289,1701.653320 
	C697.289612,1700.879272 697.120056,1700.439941 696.950439,1700.000610 
	C696.950439,1700.000610 696.965820,1699.986206 696.929932,1700.070557 
	C696.714172,1700.187622 696.535156,1700.189087 696.357056,1700.159180 
	C686.057068,1696.025146 680.318237,1687.493408 676.009705,1678.026123 
	C673.887146,1673.362061 673.298340,1668.000244 672.096558,1662.074585 
	C672.119141,1658.034180 672.010437,1654.873413 672.009766,1651.712524 
	C671.988708,1555.689331 671.985413,1459.666260 671.934631,1363.643066 
	C671.932983,1360.525146 671.462280,1357.407471 671.210205,1354.289673 
	C669.353455,1345.088745 662.039856,1337.985962 653.504944,1337.094360 
	C647.724365,1336.490601 638.004517,1343.232178 635.108887,1349.869995 
	C634.715759,1350.770996 634.396729,1351.704590 633.770203,1353.342041 
	C633.346130,1356.048584 633.063904,1358.036133 633.063232,1360.023560 
	C633.027649,1459.688354 633.016174,1559.353149 633.002014,1659.017944 
	C632.051025,1678.816528 623.068481,1693.495972 605.201355,1702.440552 
	C601.856873,1704.114746 598.358093,1705.480591 594.239929,1706.850586 
	C588.137207,1706.965820 582.612183,1708.019043 577.341003,1707.274536 
	C570.428284,1706.297974 563.715942,1703.903442 556.917358,1702.118896 
	C542.123413,1695.223145 532.818665,1684.200439 530.786255,1666.983276 
	C530.507385,1666.019775 530.395813,1665.657349 530.284302,1665.295044 
	C530.214600,1664.813721 530.144836,1664.332275 530.125488,1663.133423 
	C530.116882,1660.253296 530.006348,1658.090820 530.006409,1655.928223 
	C530.010498,1559.895508 530.040588,1463.862915 530.026978,1367.830200 
	C530.022827,1338.872437 529.900330,1309.914673 529.874146,1280.491943 
	C529.982666,1200.975708 530.054749,1121.924438 530.075195,1042.873169 
	C530.075562,1041.294556 529.471558,1039.715698 529.149536,1038.136963 
	C527.993774,1036.815552 527.026001,1035.241943 525.649841,1034.216187 
	C519.582764,1029.694458 514.267151,1031.864014 512.889709,1039.290283 
	C512.236084,1042.814087 511.563110,1046.334351 510.880554,1050.639160 
	C510.617767,1053.057861 510.158142,1054.693726 510.160248,1056.329102 
	C510.212402,1096.929565 510.313324,1137.530029 510.317566,1178.571289 
	C510.516785,1209.711670 510.872223,1240.410767 511.052307,1271.110840 
	C511.110992,1281.115723 510.712250,1291.123291 510.522705,1301.129639 
	C510.669617,1301.708252 510.816559,1302.286987 511.138550,1303.681152 
	C511.313599,1304.496826 511.443054,1304.408081 511.443054,1304.408081 
	C511.281403,1304.992920 511.119720,1305.577881 510.995026,1307.098145 
	C511.114410,1311.176758 511.196838,1314.319946 511.279266,1317.463135 
	C513.455444,1335.527466 508.989929,1350.275757 490.810394,1357.828735 
	C482.978607,1361.082764 474.729401,1359.232056 467.296814,1355.903076 
	C454.495178,1350.169189 450.096741,1339.152710 450.094482,1325.848755 
	C450.090240,1300.879395 450.087769,1275.910034 450.101288,1250.005615 
	C450.096985,1189.711426 450.075958,1130.352295 450.054932,1070.993164 
	C450.049500,1065.829468 449.996552,1060.665405 450.046967,1055.502319 
	C450.263733,1033.315674 451.624298,1011.338867 459.211670,990.119080 
	C461.492249,983.740845 462.795563,977.107361 468.693237,972.904968 
	C470.816315,971.392334 473.072052,969.767944 475.517731,969.061157 
	C483.077393,966.876587 488.620544,962.024475 492.709290,955.761047 
	C501.982727,941.554993 510.775879,927.036133 519.827698,912.684387 
	C526.064941,902.795105 535.578918,896.935730 545.780273,892.003235 
	C549.882019,890.019958 554.078247,888.232178 558.858765,886.298096 
	C576.110107,880.464539 593.157471,876.742554 610.738586,875.494568 
	C613.643433,875.288391 616.509766,874.539917 619.393921,874.042114 
	C619.393921,874.042114 619.495117,873.999084 619.953552,874.215332 
	C622.827576,874.366333 625.243103,874.300964 627.854248,874.328247 
	C628.461304,874.336426 628.872803,874.251831 629.593262,874.209229 
	C630.522644,874.214294 631.143127,874.177429 631.937012,874.230713 
	C632.485718,874.260803 632.861023,874.200562 633.487976,874.189880 
	C634.077820,874.204224 634.416077,874.168945 635.167358,874.232422 
	C643.504150,874.295532 651.428040,874.260071 659.782043,874.288818 
	C661.644104,874.261169 663.075989,874.169250 664.507874,874.077271 
	C664.507874,874.077271 664.460632,874.053101 664.726440,874.345337 
	C669.252014,875.168457 673.511780,875.699280 677.771545,876.230164 
z"/>
<path fill="#86181A" opacity="1.000000" stroke="none" 
	d="
M631.739563,601.284241 
	C635.507507,598.369873 639.385864,595.586121 643.021484,592.515076 
	C651.825256,585.078369 660.611694,577.615234 669.214844,569.949280 
	C674.042358,565.647583 675.426025,565.425781 679.799438,570.042175 
	C702.511230,594.015625 729.992737,610.943848 759.993408,624.043579 
	C772.097351,629.328735 784.464722,634.010559 797.160278,639.083008 
	C797.867371,639.186218 798.019470,639.295410 798.064575,639.526855 
	C798.454041,639.661377 798.843506,639.795837 800.107544,640.249268 
	C815.335999,644.489136 829.697510,648.382568 844.034119,652.365540 
	C845.835144,652.865967 848.821838,652.135132 848.388245,655.688965 
	C847.199768,656.109070 846.011353,656.529175 844.059753,656.933594 
	C841.064697,657.923767 838.832703,658.929626 836.600769,659.935486 
	C836.600769,659.935486 836.540344,659.990234 836.098755,659.895935 
	C833.298401,660.846313 830.939697,661.890991 828.580994,662.935730 
	C828.580994,662.935730 828.531860,662.983032 828.084473,662.892578 
	C823.840515,664.240906 820.044006,665.679688 816.247437,667.118469 
	C808.207764,670.395203 800.229065,673.833374 792.111633,676.904602 
	C783.481689,680.169678 774.685547,682.994263 766.037781,686.214661 
	C763.557434,687.138245 761.482300,688.696411 761.928772,692.099731 
	C763.256653,702.220581 764.454651,712.359253 765.603577,722.502319 
	C766.086365,726.764709 766.318359,731.055542 766.051636,735.572632 
	C754.092224,724.576416 741.459900,715.365356 725.703613,709.819214 
	C721.693542,708.306335 718.493469,706.410522 715.036438,705.562561 
	C690.406799,699.521179 665.591736,699.802917 640.724487,703.949585 
	C639.335999,704.181152 638.056152,705.064514 636.725708,705.644470 
	C615.795593,711.116516 596.890686,720.059753 582.031433,738.570618 
	C582.940735,730.393188 583.738159,723.693665 584.418762,716.982300 
	C585.282288,708.468018 586.019531,699.940918 586.877197,691.425964 
	C587.189331,688.326721 585.487915,686.971985 582.867554,686.073853 
	C578.038879,684.418823 573.253479,682.637512 567.814453,680.865479 
	C567.131287,680.523743 567.083618,680.225342 567.035950,679.927002 
	C567.035950,679.927002 566.954834,680.104980 566.742798,679.773071 
	C562.858215,678.270508 559.185730,677.099731 555.513184,675.929016 
	C555.513184,675.929016 555.458740,675.990479 555.240051,675.637207 
	C552.586853,674.498962 550.152405,673.714050 547.717957,672.929199 
	C547.457214,672.897461 547.196411,672.865723 546.646973,672.613892 
	C546.358398,672.393799 546.444641,672.492737 546.444641,672.492737 
	C543.519470,671.457336 540.641724,670.241394 537.650879,669.455872 
	C535.925415,669.002625 534.017334,669.244263 532.005249,669.720459 
	C531.846069,672.757324 531.914062,675.247070 531.893860,677.736206 
	C531.730774,697.838806 531.551025,717.941284 531.326660,738.506897 
	C531.171631,759.398010 531.070679,779.826050 530.954529,800.253967 
	C530.943054,802.279785 531.588074,804.904907 527.924500,804.043030 
	C523.366394,803.612854 518.808228,803.182617 513.806702,802.710510 
	C514.575928,794.373718 515.336853,785.447021 516.239990,776.534729 
	C517.101807,768.030579 518.410583,759.561584 518.987488,751.040955 
	C519.879150,737.870483 520.282715,724.667603 520.953308,711.481506 
	C521.616272,698.445740 522.190369,685.401855 523.132507,672.385437 
	C523.557251,666.516846 521.470703,662.989746 515.773071,661.446106 
	C513.892212,660.936523 512.154602,659.898315 509.794128,658.708130 
	C506.522247,657.014587 503.807709,655.714783 500.938873,654.341064 
	C501.566864,653.678467 501.741943,653.320190 501.993225,653.254761 
	C505.521393,652.336304 509.060638,651.460449 512.595886,650.569153 
	C536.577148,644.523621 560.230286,637.489258 582.823914,627.262329 
	C584.662048,626.267578 586.500244,625.272766 588.949158,624.195435 
	C596.718994,620.388672 603.878113,616.664490 611.037170,612.940308 
	C611.037170,612.940308 611.019836,613.024109 611.348633,613.027649 
	C613.793640,611.663818 615.909912,610.296448 618.026184,608.929077 
	C618.026184,608.929077 618.014526,609.013794 618.344238,609.023254 
	C621.790405,606.997437 624.906860,604.962158 628.023315,602.926941 
	C628.023315,602.926941 628.009338,603.007080 628.278320,603.054932 
	C629.611389,602.496582 630.675476,601.890381 631.739563,601.284241 
z"/>
<path fill="#86181A" opacity="1.000000" stroke="none" 
	d="
M645.451233,856.971680 
	C645.451233,856.971680 645.482300,856.955872 645.334167,856.609375 
	C643.737305,855.857422 642.288574,855.451843 640.839844,855.046326 
	C630.624390,851.041992 621.600098,845.343018 613.817383,837.462524 
	C607.789429,831.358704 602.158447,825.173157 597.790527,817.651489 
	C592.259216,808.126404 589.846252,797.850342 587.977661,787.237976 
	C585.785217,774.786743 588.285645,762.634827 589.959351,750.440186 
	C591.556458,738.804443 598.749146,731.232605 608.842957,726.133606 
	C613.117188,723.974426 617.590393,722.208923 622.395569,720.192139 
	C622.817993,720.119751 623.286255,720.006165 623.286255,720.006165 
	C623.286255,720.006165 623.708984,720.086853 623.708984,720.086853 
	C624.020935,719.806152 624.332825,719.525452 625.532043,718.896057 
	C628.186340,718.129578 629.963196,717.749695 631.718750,717.288391 
	C660.443115,709.740051 689.116455,709.858093 717.740906,717.835938 
	C718.318115,717.937927 718.895325,718.039978 719.935913,718.218994 
	C720.399231,718.295898 720.623169,718.327820 720.623169,718.327820 
	C730.658447,721.492004 740.829773,724.676941 748.654663,732.022400 
	C756.354309,739.250244 759.482178,748.986816 760.944946,759.215637 
	C763.250305,775.337524 762.087097,791.164124 756.185608,806.453918 
	C752.064819,817.130127 746.862732,827.187744 737.827637,834.659668 
	C731.518982,839.876831 725.349976,845.354004 718.547913,849.852112 
	C713.831360,852.971252 708.143860,854.622192 702.110718,856.868896 
	C686.254272,861.114014 671.051941,862.718872 655.577209,859.046753 
	C652.226440,858.251587 648.827820,857.658081 645.451233,856.971680 
z"/>
<path fill="#040605" opacity="1.000000" stroke="none" 
	d="
M557.457886,874.041565 
	C557.457886,874.041565 557.500427,873.990967 557.131592,873.772095 
	C555.663879,874.050354 554.564941,874.547424 553.466003,875.044556 
	C548.954163,877.511780 544.459534,880.011169 539.927307,882.440308 
	C526.322998,889.731323 516.702942,901.186523 508.152435,913.542114 
	C500.020935,925.292236 492.652985,937.568542 484.650818,949.411865 
	C482.653107,952.368408 479.597382,954.652039 476.863586,957.058228 
	C473.833344,959.725403 470.554016,959.312134 467.105072,957.608337 
	C463.539764,955.847168 461.319397,953.040527 462.118195,949.264832 
	C463.650391,942.022827 465.423492,934.768005 467.910187,927.809265 
	C470.522217,920.499939 474.243011,913.594238 477.166412,906.385315 
	C478.498138,903.101257 479.323761,899.399048 474.761261,897.527771 
	C471.127319,896.037292 467.308197,897.914429 465.572235,902.127808 
	C461.294495,912.510315 456.743073,922.800903 452.989197,933.372498 
	C449.168945,944.131104 448.132141,954.824036 457.397491,963.970703 
	C460.396057,966.930969 459.322723,970.485840 456.592712,972.792114 
	C452.600189,976.164673 448.052887,978.880432 443.051636,981.843018 
	C435.050720,981.200623 427.740204,980.591309 420.429688,979.981995 
	C420.429688,979.981995 420.459503,980.023987 420.402100,979.650513 
	C419.874786,979.174683 419.404907,979.072388 418.934998,978.970093 
	C418.934998,978.970093 419.016571,978.981750 419.034790,978.681519 
	C418.652924,978.242310 418.252869,978.103210 417.852783,977.964111 
	C412.581360,974.337158 410.079651,968.933655 408.975159,962.969788 
	C406.791077,951.176819 407.402924,939.488892 411.787750,928.210693 
	C415.192627,919.452942 418.117401,910.402649 422.525635,902.161804 
	C433.390930,881.849915 447.973450,864.764282 469.138916,853.215210 
	C473.203552,850.957581 476.662628,848.960083 480.121704,846.962585 
	C480.121704,846.962585 480.357635,846.985596 480.889252,847.127441 
	C497.755890,841.016602 514.756958,838.400269 532.158508,837.893860 
	C533.542603,837.853577 534.910828,837.267517 536.286438,836.935059 
	C536.286438,836.935120 536.373230,836.956604 536.936890,837.198547 
	C537.854004,837.299438 538.207520,837.158386 538.561035,837.017334 
	C538.754883,836.979736 538.950256,836.967163 539.823914,837.209900 
	C540.854004,837.299133 541.207458,837.158142 541.560913,837.017090 
	C541.754761,836.979370 541.950256,836.966797 542.823792,837.209839 
	C543.853699,837.299500 544.207153,837.158569 544.560608,837.017700 
	C544.560608,837.017700 544.650146,836.959167 544.978638,837.293213 
	C549.219360,837.755310 553.131592,837.883362 557.043823,838.011475 
	C562.504700,838.430481 567.965515,838.849487 574.171387,839.161987 
	C583.299988,840.046021 591.683533,841.036377 600.067139,842.026733 
	C600.067139,842.026794 599.986267,842.017517 599.936523,842.312012 
	C600.279297,842.752502 600.671753,842.898376 601.064270,843.044250 
	C601.064270,843.044250 600.981201,843.018677 600.968323,843.301941 
	C601.325012,843.738525 601.694580,843.891846 602.064148,844.045166 
	C602.064148,844.045166 601.981018,844.018799 601.971680,844.299988 
	C602.329712,844.736023 602.696960,844.890869 603.064209,845.045776 
	C603.064209,845.045776 602.981140,845.018860 602.972229,845.299744 
	C603.330200,845.735840 603.697144,845.891052 604.064026,846.046265 
	C604.064026,846.046265 603.978577,846.020325 604.049316,846.357849 
	C604.605835,846.805542 605.091614,846.915710 605.577393,847.025879 
	C609.860413,850.590271 614.143433,854.154663 618.831665,858.216370 
	C619.846375,858.812073 620.455811,858.910461 621.065247,859.008850 
	C621.065247,859.008850 620.989441,859.006897 620.788269,859.336975 
	C616.765137,860.460754 612.943176,861.254517 608.666321,861.994019 
	C592.284241,865.270203 576.351135,868.572754 560.443115,871.992493 
	C559.351624,872.227112 558.448547,873.338074 557.457886,874.041565 
z"/>
<path fill="#86181A" opacity="1.000000" stroke="none" 
	d="
M1012.099976,869.635803 
	C1012.100037,869.635803 1012.018127,869.524597 1012.366821,869.331848 
	C1012.804443,868.732422 1012.893494,868.325806 1012.982544,867.919128 
	C1012.982544,867.919128 1012.987122,867.989746 1013.258789,867.978271 
	C1013.688171,867.618469 1013.845947,867.270081 1014.003662,866.921692 
	C1014.003662,866.921692 1014.003540,867.003601 1014.270996,866.985291 
	C1014.690674,866.617554 1014.842957,866.268127 1014.995361,865.918701 
	C1014.995361,865.918762 1014.994751,865.994324 1015.286560,866.003296 
	C1015.705078,865.647949 1015.831787,865.283630 1015.958496,864.919250 
	C1015.958496,864.919250 1015.988525,864.985352 1016.418213,865.098633 
	C1023.456604,863.276733 1029.856323,863.306641 1035.841553,867.232483 
	C1044.703979,873.699341 1054.302856,879.379822 1062.249756,886.823975 
	C1073.181519,897.064270 1082.597900,908.932495 1081.868286,925.261658 
	C1081.188354,940.476562 1075.059448,952.761353 1057.601318,956.735596 
	C1053.512451,956.953674 1050.070679,957.474182 1046.629028,957.994751 
	C1046.629028,957.994751 1046.524658,958.037598 1046.034668,957.784912 
	C1036.202271,957.665771 1026.860107,957.799316 1017.517822,957.932861 
	C1017.517822,957.932861 1017.473938,958.037476 1017.083618,957.706543 
	C1009.135132,957.308411 1001.577026,957.241272 994.018860,957.174133 
	C979.908508,960.192078 963.098572,953.765137 958.301758,937.590820 
	C955.274231,927.382507 956.706482,916.651184 963.604248,907.778870 
	C965.717773,905.060364 969.338440,903.513611 972.963501,901.313721 
	C980.137695,900.169922 986.587830,898.597046 993.103943,898.245239 
	C1002.508850,897.737427 1011.961487,898.126892 1021.393738,898.102112 
	C1022.704285,898.098694 1024.014282,897.916504 1025.324585,897.817017 
	C1025.180664,897.222900 1025.036621,896.628723 1024.892700,896.034607 
	C1024.892700,896.034607 1024.960449,896.017700 1025.031616,895.711426 
	C1024.706665,895.284607 1024.310425,895.164062 1023.914307,895.043518 
	C1023.914307,895.043518 1023.979980,895.019470 1024.022461,894.717468 
	C1023.681824,894.284485 1023.298523,894.153503 1022.915283,894.022583 
	C1022.915283,894.022583 1022.984253,894.017029 1022.992371,893.761230 
	C1022.665039,893.345276 1022.329590,893.185059 1021.994141,893.024902 
	C1013.228333,889.124146 1010.106018,882.147522 1011.364624,872.295166 
	C1011.816833,870.970520 1011.958435,870.303162 1012.099976,869.635803 
z"/>
<path fill="#858686" opacity="1.000000" stroke="none" 
	d="
M788.028931,1508.000000 
	C788.028809,1559.627075 788.028809,1610.754150 788.028809,1661.881226 
	C787.856323,1661.880859 787.683899,1661.880371 787.511414,1661.880005 
	C787.511414,1437.444214 787.511414,1213.008545 787.511414,988.572815 
	C787.683960,988.572876 787.856567,988.572937 788.029114,988.572998 
	C788.029114,1161.548706 788.029114,1334.524292 788.028931,1508.000000 
z"/>
<path fill="#D7ACAD" opacity="1.000000" stroke="none" 
	d="
M775.409302,1659.877930 
	C774.999207,1545.749756 775.011414,1431.478027 774.998779,1317.206299 
	C774.986633,1207.773682 774.948608,1098.341064 774.957886,988.445801 
	C775.338806,989.444214 775.985535,990.905273 775.985840,992.366516 
	C776.030151,1213.165039 776.028076,1433.963623 776.018677,1654.762207 
	C776.018616,1656.419678 775.889526,1658.077026 775.409302,1659.877930 
z"/>
<path fill="#858686" opacity="1.000000" stroke="none" 
	d="
M761.803589,858.868225 
	C753.601624,857.855713 745.871155,856.641541 738.093262,856.039307 
	C735.316101,855.824280 732.424194,857.090698 729.316162,856.932190 
	C730.164795,856.608582 731.008606,856.021423 731.862793,856.005798 
	C736.095398,855.928406 740.354614,855.721680 744.560242,856.080017 
	C753.752014,856.863159 762.915833,857.971741 772.093506,858.923706 
	C775.813110,859.309509 779.536987,859.658630 783.262695,859.980957 
	C794.430481,860.947205 805.619812,861.707642 816.763367,862.898193 
	C827.463745,864.041382 838.100159,865.777893 848.797302,866.958069 
	C856.719360,867.831970 864.720093,868.000793 872.638184,868.901489 
	C882.571777,870.031372 892.441345,871.715576 902.367981,872.917786 
	C909.458801,873.776672 916.614746,874.091736 923.710876,874.914673 
	C930.747864,875.730713 937.739075,876.933777 944.764526,877.859131 
	C948.466309,878.346680 952.209167,878.518311 955.914673,878.982666 
	C963.277649,879.905334 970.618774,881.005981 977.986938,881.881653 
	C981.276001,882.272583 984.608459,882.297668 987.865845,883.448364 
	C912.662659,875.268311 837.459534,867.088196 761.803589,858.868225 
z"/>
<path fill="#B38687" opacity="1.000000" stroke="none" 
	d="
M529.832092,1280.956909 
	C529.900330,1309.914673 530.022827,1338.872437 530.026978,1367.830200 
	C530.040588,1463.862915 530.010498,1559.895508 530.006409,1655.928223 
	C530.006348,1658.090820 530.116882,1660.253296 530.094299,1662.769165 
	C529.646606,1661.998413 528.960449,1660.874390 528.960632,1659.750366 
	C528.966553,1617.765625 529.086975,1575.780762 529.085938,1533.796021 
	C529.083923,1449.820190 529.020081,1365.844360 529.237488,1281.411133 
	C529.493225,1280.953735 529.832092,1280.956909 529.832092,1280.956909 
z"/>
<path fill="#B38687" opacity="1.000000" stroke="none" 
	d="
M671.167847,1354.735596 
	C671.462280,1357.407471 671.932983,1360.525146 671.934631,1363.643066 
	C671.985413,1459.666260 671.988708,1555.689331 672.009766,1651.712524 
	C672.010437,1654.873413 672.119141,1658.034180 672.120972,1661.669678 
	C671.675598,1661.205322 670.946533,1660.266357 670.946533,1659.327393 
	C670.945496,1558.277466 670.998901,1457.227417 671.052490,1356.177490 
	C671.052673,1355.845581 671.100037,1355.513550 671.167847,1354.735596 
z"/>
<path fill="#D7ACAD" opacity="1.000000" stroke="none" 
	d="
M633.418030,1658.861328 
	C633.016174,1559.353149 633.027649,1459.688354 633.063232,1360.023560 
	C633.063904,1358.036133 633.346130,1356.048584 633.601562,1353.687256 
	C633.791321,1388.968506 633.920837,1424.623657 633.951965,1460.278931 
	C634.009094,1525.761597 634.008789,1591.244385 634.023315,1656.727051 
	C634.023438,1657.386230 633.899841,1658.045410 633.418030,1658.861328 
z"/>
<path fill="#858686" opacity="1.000000" stroke="none" 
	d="
M1044.998413,1092.999390 
	C1044.992188,1171.432495 1044.992188,1249.365479 1044.992188,1327.298462 
	C1044.729492,1327.298218 1044.466797,1327.297974 1044.204102,1327.297729 
	C1044.204102,1231.609741 1044.204102,1135.921875 1044.204102,1040.233887 
	C1044.470947,1040.231934 1044.737793,1040.229980 1045.004639,1040.228027 
	C1045.004639,1057.651855 1045.004639,1075.075562 1044.998413,1092.999390 
z"/>
<path fill="#D7ACAD" opacity="1.000000" stroke="none" 
	d="
M529.874146,1280.491943 
	C529.832092,1280.956909 529.493225,1280.953735 529.323914,1280.945557 
	C529.098877,1233.128418 529.021423,1185.319336 528.994873,1137.510376 
	C528.976624,1104.692017 529.029053,1071.873779 529.099670,1038.596191 
	C529.471558,1039.715698 530.075562,1041.294556 530.075195,1042.873169 
	C530.054749,1121.924438 529.982666,1200.975708 529.874146,1280.491943 
z"/>
<path fill="#D7ACAD" opacity="1.000000" stroke="none" 
	d="
M1027.054932,1445.124390 
	C1027.044067,1516.847778 1027.044067,1588.089844 1027.044067,1659.332031 
	C1026.784180,1659.331909 1026.524414,1659.331665 1026.264526,1659.331421 
	C1026.264526,1585.480713 1026.264526,1511.629883 1026.264526,1437.779053 
	C1026.531616,1437.776489 1026.798584,1437.773926 1027.065674,1437.771362 
	C1027.065674,1440.062012 1027.065674,1442.352539 1027.054932,1445.124390 
z"/>
<path fill="#B38687" opacity="1.000000" stroke="none" 
	d="
M582.429443,627.230957 
	C560.230286,637.489258 536.577148,644.523621 512.595886,650.569153 
	C509.060638,651.460449 505.521393,652.336304 501.993225,653.254761 
	C501.741943,653.320190 501.566864,653.678467 500.938873,654.341064 
	C503.807709,655.714783 506.522247,657.014587 509.444214,658.546631 
	C505.351227,657.481750 501.050812,656.184692 496.750397,654.887695 
	C496.756256,654.267273 496.762115,653.646912 496.767975,653.026550 
	C500.608734,651.994873 504.420502,650.836243 508.294922,649.952148 
	C532.408447,644.449707 555.935181,637.121033 578.769043,627.586548 
	C579.741943,627.180359 580.941162,627.316223 582.429443,627.230957 
z"/>
<path fill="#858686" opacity="1.000000" stroke="none" 
	d="
M922.843872,1479.851929 
	C922.864563,1503.649048 922.890320,1527.446167 922.904907,1551.243286 
	C922.926636,1586.528687 922.941284,1621.814209 922.944824,1657.099609 
	C922.944885,1657.403320 922.750305,1657.707031 921.972290,1658.007446 
	C921.972290,1598.935913 921.972290,1539.864380 922.237793,1480.330811 
	C922.503235,1479.868896 922.843872,1479.851929 922.843872,1479.851929 
z"/>
<path fill="#D7ACAD" opacity="1.000000" stroke="none" 
	d="
M449.620850,1071.116333 
	C450.075958,1130.352295 450.096985,1189.711426 450.087036,1249.537354 
	C449.671326,1248.906494 448.950958,1247.809082 448.949951,1246.710938 
	C448.896088,1188.872681 448.902100,1131.034546 448.915344,1073.196289 
	C448.915497,1072.544067 449.092346,1071.891724 449.620850,1071.116333 
z"/>
<path fill="#B38687" opacity="1.000000" stroke="none" 
	d="
M717.826477,717.452332 
	C689.116455,709.858093 660.443115,709.740051 631.718750,717.288391 
	C629.963196,717.749695 628.186340,718.129578 626.066406,718.563477 
	C638.140198,712.982666 651.218201,710.841248 664.779297,711.017029 
	C672.941833,711.122925 681.206055,710.146057 689.247192,711.120056 
	C698.900635,712.289368 708.365540,715.016296 717.826477,717.452332 
z"/>
<path fill="#858686" opacity="1.000000" stroke="none" 
	d="
M1009.999573,626.019897 
	C1018.081543,628.691650 1026.081055,631.654358 1034.263428,633.971619 
	C1049.046875,638.158142 1063.941528,641.952148 1078.783936,645.931458 
	C1080.242676,646.322571 1081.661621,646.862854 1083.098999,647.333862 
	C1083.176880,647.840088 1083.254883,648.346375 1083.332764,648.852600 
	C1075.706909,651.460571 1068.081055,654.068604 1060.455200,656.676575 
	C1060.439575,656.597778 1060.423950,656.518921 1060.408325,656.440125 
	C1066.682251,653.830627 1072.956055,651.221130 1079.194092,648.626526 
	C1056.108276,641.256836 1033.171265,633.934570 1010.134094,626.292419 
	C1010.033936,625.972473 1009.999573,626.019897 1009.999573,626.019897 
z"/>
<path fill="#B38687" opacity="1.000000" stroke="none" 
	d="
M1064.092041,966.250061 
	C1065.909668,965.631409 1067.427368,965.285400 1068.945190,964.939453 
	C1069.064941,965.412720 1069.184692,965.886047 1069.304443,966.359314 
	C1064.348511,967.470886 1059.405151,969.472168 1054.434204,969.543030 
	C1030.505127,969.884460 1006.568481,969.718994 982.634583,969.675415 
	C981.245117,969.672852 979.856628,969.160034 978.625122,967.918823 
	C981.667114,968.320557 984.707764,969.057739 987.751343,969.069824 
	C1008.203369,969.151367 1028.658325,969.236694 1049.106812,968.941162 
	C1054.012695,968.870300 1058.897705,967.367188 1064.092041,966.250061 
z"/>
<path fill="#858686" opacity="1.000000" stroke="none" 
	d="
M920.885864,704.924561 
	C930.133484,706.261169 938.895935,707.603577 947.658386,708.945923 
	C947.593384,709.546570 947.528381,710.147217 947.463379,710.747864 
	C916.982666,703.289978 886.722229,703.945801 856.693054,713.122437 
	C856.609070,712.659485 856.525085,712.196472 856.441162,711.733459 
	C861.427185,710.462952 866.451843,709.325989 871.392090,707.897278 
	C887.517029,703.233826 904.073303,706.033264 920.885864,704.924561 
z"/>
<path fill="#D7ACAD" opacity="1.000000" stroke="none" 
	d="
M637.077148,705.597290 
	C638.056152,705.064514 639.335999,704.181152 640.724487,703.949585 
	C665.591736,699.802917 690.406799,699.521179 715.036438,705.562561 
	C718.493469,706.410522 721.693542,708.306335 725.334351,709.672241 
	C718.097900,707.735474 710.633545,705.104980 702.958679,704.129089 
	C692.114868,702.750183 681.108521,701.981689 670.184814,702.106262 
	C661.188354,702.208923 652.211975,703.997986 643.224548,705.020386 
	C641.297363,705.239685 639.360840,705.375732 637.077148,705.597290 
z"/>
<path fill="#D7ACAD" opacity="1.000000" stroke="none" 
	d="
M510.405609,1178.130493 
	C510.313324,1137.530029 510.212402,1096.929565 510.160248,1056.329102 
	C510.158142,1054.693726 510.617767,1053.057861 510.730469,1051.070068 
	C510.709625,1081.039917 510.840057,1111.361816 510.921722,1141.683838 
	C510.953583,1153.512695 510.875610,1165.341919 510.705078,1177.565308 
	C510.562469,1177.959717 510.405609,1178.130493 510.405609,1178.130493 
z"/>
<path fill="#858686" opacity="1.000000" stroke="none" 
	d="
M510.317566,1178.571289 
	C510.405609,1178.130493 510.562469,1177.959717 510.649658,1178.038330 
	C510.727722,1199.239502 510.694092,1220.362061 510.716736,1241.484619 
	C510.737396,1260.762085 510.822052,1280.039429 510.856689,1299.316895 
	C510.857544,1299.795654 510.602295,1300.274902 510.494598,1300.941772 
	C510.712250,1291.123291 511.110992,1281.115723 511.052307,1271.110840 
	C510.872223,1240.410767 510.516785,1209.711670 510.317566,1178.571289 
z"/>
<path fill="#858686" opacity="1.000000" stroke="none" 
	d="
M1106.108521,1195.132446 
	C1106.114380,1170.329468 1106.130005,1145.526489 1106.122192,1120.723511 
	C1106.117676,1106.407593 1106.071289,1092.091553 1106.060303,1077.775635 
	C1106.059570,1076.821167 1106.198975,1075.866577 1107.061768,1074.928711 
	C1107.061768,1114.682739 1107.061768,1154.436646 1106.778931,1194.626221 
	C1106.496094,1195.061768 1106.108521,1195.132446 1106.108521,1195.132446 
z"/>
<path fill="#B38687" opacity="1.000000" stroke="none" 
	d="
M618.887695,874.041443 
	C616.509766,874.539917 613.643433,875.288391 610.738586,875.494568 
	C593.157471,876.742554 576.110107,880.464539 559.183350,886.146484 
	C565.017212,883.753113 570.994690,880.772339 577.323059,879.295471 
	C590.790894,876.152405 604.397217,873.438110 618.887695,874.041443 
z"/>
<path fill="#B38687" opacity="1.000000" stroke="none" 
	d="
M1024.704102,896.421875 
	C1025.036621,896.628723 1025.180664,897.222900 1025.324585,897.817017 
	C1024.014282,897.916504 1022.704285,898.098694 1021.393738,898.102112 
	C1011.961487,898.126892 1002.508850,897.737427 993.103943,898.245239 
	C986.587830,898.597046 980.137695,900.169922 973.240112,901.139404 
	C976.925842,899.705383 980.986572,897.316772 985.141113,897.140381 
	C998.246948,896.584045 1011.388000,896.857056 1024.704102,896.421875 
z"/>
<path fill="#D7ACAD" opacity="1.000000" stroke="none" 
	d="
M884.943237,1624.000000 
	C884.937744,1635.770386 884.937744,1647.040771 884.937744,1658.311157 
	C884.696838,1658.309814 884.455872,1658.308472 884.214966,1658.307129 
	C884.214966,1625.127563 884.214966,1591.947998 884.214966,1558.768311 
	C884.459595,1558.765869 884.704163,1558.763428 884.948792,1558.760986 
	C884.948792,1580.340698 884.948792,1601.920288 884.943237,1624.000000 
z"/>
<path fill="#B38687" opacity="1.000000" stroke="none" 
	d="
M848.603821,655.441650 
	C848.821838,652.135132 845.835144,652.865967 844.034119,652.365540 
	C829.697510,648.382568 815.335999,644.489136 800.693604,640.445557 
	C804.588074,641.193726 808.808167,641.918152 812.947266,642.963013 
	C825.271362,646.073730 837.563660,649.310425 850.131226,652.566040 
	C849.662170,653.505859 849.240784,654.350098 848.603821,655.441650 
z"/>
<path fill="#D7ACAD" opacity="1.000000" stroke="none" 
	d="
M922.885254,1479.397827 
	C922.843872,1479.851929 922.503235,1479.868896 922.332825,1479.861328 
	C922.148987,1450.928345 922.135559,1422.002930 922.312500,1392.631714 
	C922.502930,1392.185913 922.805359,1392.161255 922.805420,1392.161255 
	C922.845764,1421.088745 922.886169,1450.016235 922.885254,1479.397827 
z"/>
<path fill="#858686" opacity="1.000000" stroke="none" 
	d="
M817.607300,619.533386 
	C812.432312,621.775940 807.591309,623.882507 801.598572,626.490173 
	C810.585815,629.855957 818.470947,632.808960 826.356079,635.761963 
	C826.273132,636.008789 826.190186,636.255676 826.107239,636.502502 
	C817.227356,633.443665 808.347473,630.384827 799.467590,627.325989 
	C799.579773,626.754272 799.691956,626.182556 799.804138,625.610840 
	C806.589233,622.740540 813.374268,619.870239 820.159302,617.000000 
	C820.298035,617.221558 820.436768,617.443115 820.575500,617.664673 
	C819.697388,618.242249 818.819275,618.819763 817.607300,619.533386 
z"/>
<path fill="#858686" opacity="1.000000" stroke="none" 
	d="
M956.069580,1704.359985 
	C969.134521,1709.073120 981.762390,1708.467896 994.764709,1703.617432 
	C987.963257,1710.419067 958.440979,1710.421875 947.593628,1700.855835 
	C951.000122,1702.279663 953.346619,1703.260376 956.069580,1704.359985 
z"/>
<path fill="#858686" opacity="1.000000" stroke="none" 
	d="
M535.798584,837.002258 
	C534.910828,837.267517 533.542603,837.853577 532.158508,837.893860 
	C514.756958,838.400269 497.755890,841.016602 481.004272,847.156128 
	C487.541992,844.687317 494.365326,841.772766 501.480896,840.105042 
	C512.555420,837.509399 523.863770,836.171448 535.798584,837.002258 
z"/>
<path fill="#B38687" opacity="1.000000" stroke="none" 
	d="
M645.712646,857.296326 
	C648.827820,857.658081 652.226440,858.251587 655.577209,859.046753 
	C671.051941,862.718872 686.254272,861.114014 701.747559,856.918701 
	C695.333557,858.702271 688.585693,861.092712 681.654480,861.890869 
	C669.534668,863.286560 657.509766,862.030701 645.712646,857.296326 
z"/>
<path fill="#B38687" opacity="1.000000" stroke="none" 
	d="
M700.840698,1703.306396 
	C707.250671,1704.409424 713.881042,1707.094604 720.468933,1706.994141 
	C728.790833,1706.867188 737.078064,1704.470093 745.640747,1703.133057 
	C731.026062,1711.331787 716.063477,1710.499146 700.840698,1703.306396 
z"/>
<path fill="#858686" opacity="1.000000" stroke="none" 
	d="
M914.702332,696.013672 
	C907.788452,695.952026 901.348633,695.952026 894.908875,695.952026 
	C912.284851,694.578857 929.536377,695.012207 946.335144,700.400940 
	C940.587524,699.526672 934.848572,698.588379 929.088562,697.806152 
	C926.357788,697.435242 923.577576,697.441895 920.836914,697.127563 
	C918.934875,696.909424 917.062195,696.435120 914.702332,696.013672 
z"/>
<path fill="#858686" opacity="1.000000" stroke="none" 
	d="
M557.887939,874.067810 
	C558.448547,873.338074 559.351624,872.227112 560.443115,871.992493 
	C576.351135,868.572754 592.284241,865.270203 608.655518,862.202515 
	C609.099670,862.465271 609.128235,862.881409 609.128235,862.881409 
	C591.770569,864.711365 574.851990,868.531250 557.887939,874.067810 
z"/>
<path fill="#858686" opacity="1.000000" stroke="none" 
	d="
M1048.920410,728.206909 
	C1048.990967,750.951965 1049.052490,773.697144 1049.176514,796.441895 
	C1049.180054,797.098755 1049.845581,797.751892 1050.595703,798.194580 
	C1050.989136,797.982361 1051.027954,797.989807 1051.027954,797.989807 
	C1050.240112,799.048950 1049.452271,800.108093 1048.268311,801.699707 
	C1048.268311,776.813477 1048.268311,752.975403 1048.385498,728.629883 
	C1048.502686,728.122559 1048.920410,728.206909 1048.920410,728.206909 
z"/>
<path fill="#D7ACAD" opacity="1.000000" stroke="none" 
	d="
M528.090698,804.397095 
	C531.588074,804.904907 530.943054,802.279785 530.954529,800.253967 
	C531.070679,779.826050 531.171631,759.398010 531.436523,738.553467 
	C531.596191,738.136963 531.729553,737.939941 531.729553,737.939941 
	C531.729553,760.516846 531.729553,783.093750 531.729553,805.995789 
	C530.556702,805.575439 529.406799,805.163269 528.090698,804.397095 
z"/>
<path fill="#858686" opacity="1.000000" stroke="none" 
	d="
M531.827209,737.490051 
	C531.729553,737.939941 531.596191,738.136963 531.486328,738.090332 
	C531.551025,717.941284 531.730774,697.838806 531.893860,677.736206 
	C531.914062,675.247070 531.846069,672.757324 531.682373,669.944214 
	C531.672180,692.093750 531.798523,714.566956 531.827209,737.490051 
z"/>
<path fill="#858686" opacity="1.000000" stroke="none" 
	d="
M1006.317505,676.951538 
	C1001.915405,678.100464 997.922974,679.273865 993.930481,680.447327 
	C994.001831,680.673584 994.073242,680.899841 994.144592,681.126160 
	C1005.938538,676.585083 1017.732483,672.044006 1029.526489,667.502991 
	C1029.636230,667.798828 1029.746094,668.094666 1029.855835,668.390503 
	C1022.146240,671.252380 1014.436646,674.114197 1006.317505,676.951538 
z"/>
<path fill="#858686" opacity="1.000000" stroke="none" 
	d="
M868.226807,647.017761 
	C870.712219,647.591919 872.804688,648.082642 874.897156,648.573303 
	C874.785400,649.030334 874.673706,649.487366 874.561951,649.944336 
	C862.828186,647.002808 851.094421,644.061279 839.360657,641.119690 
	C839.468811,640.676514 839.577026,640.233337 839.685242,639.790161 
	C849.068054,642.171570 858.450928,644.552979 868.226807,647.017761 
z"/>
<path fill="#B38687" opacity="1.000000" stroke="none" 
	d="
M557.076843,1702.453857 
	C563.715942,1703.903442 570.428284,1706.297974 577.341003,1707.274536 
	C582.612183,1708.019043 588.137207,1706.965820 593.874023,1706.892944 
	C583.439087,1711.001953 572.980774,1709.275024 562.664551,1705.332397 
	C560.803040,1704.620850 559.043152,1703.643311 557.076843,1702.453857 
z"/>
<path fill="#858686" opacity="1.000000" stroke="none" 
	d="
M811.189209,1702.821655 
	C821.466064,1708.434937 832.597229,1707.556152 843.742737,1707.799194 
	C838.879517,1708.089233 833.955872,1708.989258 829.168518,1708.514771 
	C823.213135,1707.924194 817.367981,1706.209351 811.489441,1704.915405 
	C811.287170,1704.870972 811.237793,1704.131836 811.157288,1703.296875 
	C811.197449,1702.877075 811.189209,1702.821655 811.189209,1702.821655 
z"/>
<path fill="#86181A" opacity="1.000000" stroke="none" 
	d="
M1105.878906,1314.984619 
	C1105.878784,1319.579956 1105.878784,1323.678955 1105.878784,1327.777954 
	C1105.688599,1327.775146 1105.498535,1327.772339 1105.308350,1327.769409 
	C1105.308350,1310.855957 1105.308350,1293.942505 1105.308350,1277.029053 
	C1105.498535,1277.029175 1105.688721,1277.029297 1105.878906,1277.029541 
	C1105.878906,1289.515747 1105.878906,1302.002075 1105.878906,1314.984619 
z"/>
<path fill="#858686" opacity="1.000000" stroke="none" 
	d="
M884.143433,852.219849 
	C890.359985,853.424561 896.172119,854.532837 901.984314,855.641113 
	C901.889709,856.103577 901.795166,856.566040 901.700623,857.028503 
	C892.780884,855.204895 883.861084,853.381287 874.941345,851.557678 
	C875.067871,850.961304 875.194397,850.364868 875.320984,849.768494 
	C878.127014,850.553467 880.933105,851.338379 884.143433,852.219849 
z"/>
<path fill="#B38687" opacity="1.000000" stroke="none" 
	d="
M610.661926,613.003052 
	C603.878113,616.664490 596.718994,620.388672 589.280029,624.061157 
	C596.095703,620.361633 603.191162,616.713745 610.661926,613.003052 
z"/>
<path fill="#D7ACAD" opacity="1.000000" stroke="none" 
	d="
M664.219971,873.706909 
	C663.075989,874.169250 661.644104,874.261169 659.293701,874.177246 
	C650.501526,874.045532 642.627930,874.089600 634.754333,874.133667 
	C634.416077,874.168945 634.077820,874.204224 633.119141,874.130127 
	C632.253662,874.060669 632.008667,874.100586 631.763611,874.140503 
	C631.143127,874.177429 630.522644,874.214294 629.183960,874.173340 
	C628.196777,874.142151 627.927734,874.188904 627.658691,874.235596 
	C625.243103,874.300964 622.827576,874.366333 619.974854,874.265991 
	C620.044983,873.718872 620.553833,873.002197 621.059387,873.004578 
	C635.350464,873.070862 649.641235,873.209656 664.219971,873.706909 
z"/>
<path fill="#B38687" opacity="1.000000" stroke="none" 
	d="
M1035.860474,866.843506 
	C1029.856323,863.306641 1023.456604,863.276733 1016.385986,865.081787 
	C1022.387451,860.389465 1030.701172,861.015564 1035.860474,866.843506 
z"/>
<path fill="#D7ACAD" opacity="1.000000" stroke="none" 
	d="
M1106.068237,1195.587646 
	C1106.108521,1195.132446 1106.496094,1195.061768 1106.690308,1195.095703 
	C1106.884521,1208.194214 1106.884521,1221.258789 1106.884521,1234.323242 
	C1106.598999,1234.325684 1106.313477,1234.328125 1106.027954,1234.330566 
	C1106.027954,1221.567993 1106.027954,1208.805298 1106.068237,1195.587646 
z"/>
<path fill="#040605" opacity="1.000000" stroke="none" 
	d="
M882.977661,1399.990356 
	C882.993225,1392.855591 883.004089,1386.218750 883.040161,1379.582031 
	C883.041748,1379.288452 883.272461,1378.996216 883.716248,1377.947388 
	C883.716248,1390.169800 883.716248,1401.635376 883.716248,1413.100952 
	C883.470093,1413.116577 883.223877,1413.132324 882.977722,1413.148071 
	C882.977722,1408.928101 882.977722,1404.708252 882.977661,1399.990356 
z"/>
<path fill="#858686" opacity="1.000000" stroke="none" 
	d="
M917.867432,854.276611 
	C922.438660,853.394409 926.584778,852.578613 930.730835,851.762817 
	C930.811279,852.261292 930.891785,852.759827 930.972229,853.258362 
	C923.774780,854.426331 916.577393,855.594299 909.379944,856.762329 
	C909.306396,856.308899 909.232788,855.855408 909.159241,855.401978 
	C911.920227,855.049011 914.681213,854.695984 917.867432,854.276611 
z"/>
<path fill="#858686" opacity="1.000000" stroke="none" 
	d="
M970.970276,608.024353 
	C977.567505,611.034973 984.164734,614.045593 990.761963,617.056152 
	C990.551880,617.495789 990.341736,617.935425 990.131592,618.375061 
	C983.801514,615.106384 977.471436,611.837769 971.078979,608.267517 
	C971.016602,607.965942 970.970276,608.024353 970.970276,608.024353 
z"/>
<path fill="#B38687" opacity="1.000000" stroke="none" 
	d="
M879.019958,698.068115 
	C875.607788,698.405029 872.650146,698.765625 869.692566,699.126160 
	C869.647400,698.758545 869.602295,698.390930 869.557190,698.023254 
	C877.261597,697.063354 884.966064,696.103516 892.670532,695.143616 
	C892.729309,695.602844 892.788025,696.062134 892.846802,696.521423 
	C888.389343,697.044861 883.931946,697.568298 879.019958,698.068115 
z"/>
<path fill="#858686" opacity="1.000000" stroke="none" 
	d="
M906.305054,1336.877441 
	C909.223022,1337.958130 911.763367,1338.893921 913.863953,1339.667847 
	C908.338806,1338.973877 902.481567,1338.238159 897.536438,1337.617065 
	C899.518799,1337.408203 902.723083,1337.070557 906.305054,1336.877441 
z"/>
<path fill="#858686" opacity="1.000000" stroke="none" 
	d="
M420.713318,980.283691 
	C427.740204,980.591309 435.050720,981.200623 442.699493,981.905029 
	C435.457458,985.163635 428.187408,983.494019 420.713318,980.283691 
z"/>
<path fill="#858686" opacity="1.000000" stroke="none" 
	d="
M824.593018,615.320312 
	C830.302795,612.325562 835.758179,609.583862 841.213562,606.842163 
	C841.429260,607.305420 841.645020,607.768738 841.860718,608.231995 
	C836.020020,610.679077 830.179321,613.126221 824.593018,615.320312 
z"/>
<path fill="#858686" opacity="1.000000" stroke="none" 
	d="
M599.954102,841.632263 
	C591.683533,841.036377 583.299988,840.046021 574.695007,839.250916 
	C581.743408,839.585754 589.015198,839.666260 596.280823,839.923157 
	C597.481628,839.965637 598.655029,840.780090 599.954102,841.632263 
z"/>
<path fill="#858686" opacity="1.000000" stroke="none" 
	d="
M860.194702,660.128784 
	C862.177124,659.585510 863.839172,659.263245 865.501160,658.940979 
	C865.574341,659.205017 865.647461,659.469116 865.720642,659.733154 
	C859.623596,661.996826 853.526611,664.260498 847.429565,666.524170 
	C847.268677,666.117859 847.107727,665.711548 846.946838,665.305176 
	C851.255981,663.653381 855.565125,662.001587 860.194702,660.128784 
z"/>
<path fill="#040605" opacity="1.000000" stroke="none" 
	d="
M1048.954346,727.723511 
	C1048.920410,728.206909 1048.502686,728.122559 1048.298462,728.183411 
	C1048.094238,717.368835 1048.094238,706.493347 1048.094238,695.617920 
	C1048.392212,695.617371 1048.690308,695.616821 1048.988281,695.616333 
	C1048.988281,706.157532 1048.988281,716.698792 1048.954346,727.723511 
z"/>
<path fill="#858686" opacity="1.000000" stroke="none" 
	d="
M922.909607,1391.688721 
	C922.805359,1392.161255 922.502930,1392.185913 922.351685,1392.174805 
	C922.200439,1382.286743 922.200439,1372.409912 922.200439,1362.533081 
	C922.471558,1362.534424 922.742737,1362.535889 923.013855,1362.537354 
	C923.013855,1372.096924 923.013855,1381.656494 922.909607,1391.688721 
z"/>
<path fill="#D7ACAD" opacity="1.000000" stroke="none" 
	d="
M1017.795410,958.310730 
	C1026.860107,957.799316 1036.202271,957.665771 1046.012451,957.733093 
	C1045.967529,958.309204 1045.452393,959.013916 1044.941895,959.010742 
	C1035.985229,958.954834 1027.029175,958.812317 1017.795410,958.310730 
z"/>
<path fill="#B38687" opacity="1.000000" stroke="none" 
	d="
M609.559692,862.953125 
	C609.128235,862.881409 609.099670,862.465271 609.110474,862.256775 
	C612.943176,861.254517 616.765137,860.460754 620.788940,859.299072 
	C621.735718,859.615295 622.480774,860.299500 623.980774,861.677185 
	C618.650574,862.190613 614.320862,862.607727 609.559692,862.953125 
z"/>
<path fill="#B38687" opacity="1.000000" stroke="none" 
	d="
M994.275269,957.509033 
	C1001.577026,957.241272 1009.135132,957.308411 1017.031006,957.685303 
	C1009.756409,957.944580 1002.143982,957.894226 994.275269,957.509033 
z"/>
<path fill="#858686" opacity="1.000000" stroke="none" 
	d="
M511.313171,1317.186401 
	C511.196838,1314.319946 511.114410,1311.176758 510.769440,1307.979980 
	C510.786926,1310.920776 511.066986,1313.915161 511.313171,1317.186401 
z"/>
<path fill="#B38687" opacity="1.000000" stroke="none" 
	d="
M677.453369,876.114136 
	C673.511780,875.699280 669.252014,875.168457 664.739380,874.322266 
	C665.706909,873.994507 666.927246,873.982239 668.847778,874.243408 
	C670.619873,874.656738 671.691772,874.796509 672.763672,874.936279 
	C674.220825,875.290161 675.677979,875.644104 677.453369,876.114136 
z"/>
<path fill="#858686" opacity="1.000000" stroke="none" 
	d="
M479.732788,846.944031 
	C476.662628,848.960083 473.203552,850.957581 469.374939,852.971069 
	C472.451569,850.966492 475.897705,848.945984 479.732788,846.944031 
z"/>
<path fill="#B38687" opacity="1.000000" stroke="none" 
	d="
M627.648315,602.964722 
	C624.906860,604.962158 621.790405,606.997437 618.301758,609.018066 
	C621.044189,607.003113 624.158752,605.002869 627.648315,602.964722 
z"/>
<path fill="#D7ACAD" opacity="1.000000" stroke="none" 
	d="
M816.532593,667.077209 
	C820.044006,665.679688 823.840515,664.240906 828.064880,662.864624 
	C824.601074,664.296753 820.709412,665.666321 816.532593,667.077209 
z"/>
<path fill="#858686" opacity="1.000000" stroke="none" 
	d="
M1010.053711,625.950928 
	C1006.964111,625.005615 1003.854675,624.081848 1000.745239,623.158081 
	C1000.903381,622.694519 1001.061523,622.230896 1001.219666,621.767334 
	C1004.057861,622.954651 1006.895996,624.141968 1009.866882,625.674561 
	C1009.999573,626.019897 1010.033936,625.972473 1010.053711,625.950928 
z"/>
<path fill="#D7ACAD" opacity="1.000000" stroke="none" 
	d="
M555.766724,676.246216 
	C559.185730,677.099731 562.858215,678.270508 566.652832,679.734741 
	C563.190063,678.873352 559.605164,677.718445 555.766724,676.246216 
z"/>
<path fill="#B38687" opacity="1.000000" stroke="none" 
	d="
M617.652954,608.965698 
	C615.909912,610.296448 613.793640,611.663818 611.306519,613.019775 
	C613.050354,611.673035 615.165039,610.337708 617.652954,608.965698 
z"/>
<path fill="#B38687" opacity="1.000000" stroke="none" 
	d="
M1047.122803,957.994812 
	C1050.070679,957.474182 1053.512451,956.953674 1057.245728,956.703979 
	C1054.230347,957.314819 1050.923462,957.654907 1047.122803,957.994812 
z"/>
<path fill="#858686" opacity="1.000000" stroke="none" 
	d="
M556.836548,837.629028 
	C553.131592,837.883362 549.219360,837.755310 545.031311,837.283936 
	C548.713379,837.042603 552.671326,837.144653 556.836548,837.629028 
z"/>
<path fill="#D7ACAD" opacity="1.000000" stroke="none" 
	d="
M547.903564,673.275940 
	C550.152405,673.714050 552.586853,674.498962 555.209534,675.609741 
	C552.961487,675.164551 550.525330,674.393616 547.903564,673.275940 
z"/>
<path fill="#D7ACAD" opacity="1.000000" stroke="none" 
	d="
M837.018555,659.949829 
	C838.832703,658.929626 841.064697,657.923767 843.680054,656.968628 
	C841.854431,658.000977 839.645325,658.982544 837.018555,659.949829 
z"/>
<path fill="#D7ACAD" opacity="1.000000" stroke="none" 
	d="
M829.006958,662.951172 
	C830.939697,661.890991 833.298401,660.846313 836.071594,659.865479 
	C834.135071,660.941772 831.783997,661.954224 829.006958,662.951172 
z"/>
<path fill="#B38687" opacity="1.000000" stroke="none" 
	d="
M631.398926,601.235779 
	C630.675476,601.890381 629.611389,602.496582 628.238220,603.048279 
	C628.972229,602.391663 630.015259,601.789490 631.398926,601.235779 
z"/>
<path fill="#B38687" opacity="1.000000" stroke="none" 
	d="
M640.995117,855.398254 
	C642.288574,855.451843 643.737305,855.857422 645.344543,856.623413 
	C644.052124,856.572571 642.601257,856.161377 640.995117,855.398254 
z"/>
<path fill="#B38687" opacity="1.000000" stroke="none" 
	d="
M623.646240,720.118896 
	C623.708984,720.086853 623.286255,720.006165 623.286255,720.006165 
	C623.286255,720.006165 622.817993,720.119751 622.794434,720.237183 
	C623.085571,720.442871 623.356384,720.374939 623.646240,720.118896 
z"/>
<path fill="#858686" opacity="1.000000" stroke="none" 
	d="
M892.071899,1341.068359 
	C892.660828,1340.795410 893.249756,1340.522583 893.838684,1340.249756 
	C893.698730,1339.985840 893.459778,1339.482422 893.433289,1339.493408 
	C892.912354,1339.708496 892.416138,1339.983398 891.965027,1340.629517 
	C892.015198,1341.013062 892.071899,1341.068237 892.071899,1341.068359 
z"/>
<path fill="#D7ACAD" opacity="1.000000" stroke="none" 
	d="
M672.750244,874.563354 
	C671.691772,874.796509 670.619873,874.656738 669.292786,874.317017 
	C670.270630,874.141541 671.503723,874.165894 672.750244,874.563354 
z"/>
<path fill="#858686" opacity="1.000000" stroke="none" 
	d="
M811.224182,1702.881470 
	C810.699829,1702.537476 810.148743,1702.188965 809.597656,1701.840576 
	C809.476624,1702.082886 809.355652,1702.325195 809.234619,1702.567383 
	C809.773132,1702.760864 810.311646,1702.954346 811.019653,1702.984741 
	C811.189209,1702.821655 811.197449,1702.877075 811.224182,1702.881470 
z"/>
<path fill="#858686" opacity="1.000000" stroke="none" 
	d="
M971.033630,607.932861 
	C970.654663,607.922363 970.257080,607.964905 969.865173,607.934509 
	C969.828918,607.931641 969.828613,607.465149 969.811646,607.213928 
	C970.208496,607.316101 970.605286,607.418274 970.986206,607.772339 
	C970.970276,608.024353 971.016602,607.965942 971.033630,607.932861 
z"/>
<path fill="#858686" opacity="1.000000" stroke="none" 
	d="
M553.921631,874.993164 
	C554.564941,874.547424 555.663879,874.050354 557.164673,873.772217 
	C556.503479,874.307983 555.440369,874.624878 553.921631,874.993164 
z"/>
<path fill="#B38687" opacity="1.000000" stroke="none" 
	d="
M797.994019,639.483887 
	C798.019470,639.295410 797.867371,639.186218 797.516357,639.258057 
	C797.596313,639.335205 797.762634,639.376526 797.994019,639.483887 
z"/>
<path fill="#B38687" opacity="1.000000" stroke="none" 
	d="
M1011.761108,869.800659 
	C1011.958435,870.303162 1011.816833,870.970520 1011.401245,871.851685 
	C1011.225647,871.365479 1011.323914,870.665527 1011.761108,869.800659 
z"/>
<path fill="#B38687" opacity="1.000000" stroke="none" 
	d="
M530.278442,1665.505615 
	C530.395813,1665.657349 530.507385,1666.019775 530.707153,1666.550171 
	C530.621216,1666.384277 530.446899,1666.050293 530.278442,1665.505615 
z"/>
<path fill="#B38687" opacity="1.000000" stroke="none" 
	d="
M621.021240,858.669006 
	C620.455811,858.910461 619.846375,858.812073 619.142822,858.369263 
	C619.691589,858.126221 620.334473,858.227661 621.021240,858.669006 
z"/>
<path fill="#B38687" opacity="1.000000" stroke="none" 
	d="
M696.887207,1700.247314 
	C697.120056,1700.439941 697.289612,1700.879272 697.549988,1701.533936 
	C697.368591,1701.330933 697.096313,1700.912598 696.887207,1700.247314 
z"/>
<path fill="#858686" opacity="1.000000" stroke="none" 
	d="
M417.942627,978.246704 
	C418.252869,978.103210 418.652924,978.242310 419.043793,978.721741 
	C418.700531,978.884521 418.366486,978.706909 417.942627,978.246704 
z"/>
<path fill="#858686" opacity="1.000000" stroke="none" 
	d="
M889.969116,1342.972046 
	C889.844727,1343.286377 889.720337,1343.600586 889.347473,1343.987793 
	C889.099060,1344.060791 889.149170,1344.094849 889.149170,1344.094849 
	C889.239319,1343.740845 889.329468,1343.386719 889.709900,1343.016602 
	C890.000183,1343.000488 889.969116,1342.972046 889.969116,1342.972046 
z"/>
<path fill="#B38687" opacity="1.000000" stroke="none" 
	d="
M698.915283,1702.331543 
	C699.172668,1702.149170 699.572327,1702.247681 700.090454,1702.646729 
	C699.825073,1702.835815 699.441345,1702.724121 698.915283,1702.331543 
z"/>
<path fill="#B38687" opacity="1.000000" stroke="none" 
	d="
M696.532593,1700.184204 
	C696.535156,1700.189087 696.714172,1700.187622 696.940308,1700.072021 
	C696.986450,1699.989380 696.708191,1700.209229 696.532593,1700.184204 
z"/>
<path fill="#858686" opacity="1.000000" stroke="none" 
	d="
M822.770569,616.732971 
	C822.488586,616.786011 822.376038,616.678894 822.263550,616.571777 
	C822.489075,616.572144 822.714539,616.572449 822.770569,616.732971 
z"/>
<path fill="#858686" opacity="1.000000" stroke="none" 
	d="
M891.023071,1342.022827 
	C891.169556,1341.685791 891.316040,1341.348877 891.767212,1341.040039 
	C892.071899,1341.068237 892.015198,1341.013062 891.989258,1340.984131 
	C891.824280,1341.279297 891.685303,1341.603394 891.273926,1341.964355 
	C891.001648,1342.001465 891.023071,1342.022827 891.023071,1342.022827 
z"/>
<path fill="#858686" opacity="1.000000" stroke="none" 
	d="
M887.293579,1346.247314 
	C887.539978,1346.250366 887.599182,1346.444702 887.658447,1346.638916 
	C887.474426,1346.572144 887.290405,1346.505371 887.293579,1346.247314 
z"/>
<path fill="#858686" opacity="1.000000" stroke="none" 
	d="
M889.081665,1344.036011 
	C888.985413,1344.050415 888.906616,1344.089600 888.988525,1344.111816 
	C889.149170,1344.094849 889.099060,1344.060791 889.081665,1344.036011 
z"/>
<path fill="#858686" opacity="1.000000" stroke="none" 
	d="
M890.992310,1341.991455 
	C890.834167,1342.301880 890.685364,1342.622192 890.252869,1342.957275 
	C889.969116,1342.972046 890.000183,1343.000488 890.016113,1343.016846 
	C890.160706,1342.684937 890.289307,1342.336670 890.720459,1342.005615 
	C891.023071,1342.022827 891.001648,1342.001465 890.992310,1341.991455 
z"/>
<path fill="#B38687" opacity="1.000000" stroke="none" 
	d="
M1013.724365,866.978210 
	C1013.845947,867.270081 1013.688171,867.618469 1013.223389,867.979553 
	C1013.092529,867.673157 1013.268738,867.353943 1013.724365,866.978210 
z"/>
<path fill="#858686" opacity="1.000000" stroke="none" 
	d="
M601.022278,842.748291 
	C600.671753,842.898376 600.279297,842.752502 599.927917,842.272278 
	C600.306152,842.109375 600.643188,842.280823 601.022278,842.748291 
z"/>
<path fill="#858686" opacity="1.000000" stroke="none" 
	d="
M602.020569,843.747192 
	C601.694580,843.891846 601.325012,843.738525 600.955322,843.260498 
	C601.295837,843.106873 601.636414,843.278076 602.020569,843.747192 
z"/>
<path fill="#858686" opacity="1.000000" stroke="none" 
	d="
M603.018188,844.749146 
	C602.696960,844.890869 602.329712,844.736023 601.958496,844.258423 
	C602.293762,844.107971 602.632996,844.280273 603.018188,844.749146 
z"/>
<path fill="#858686" opacity="1.000000" stroke="none" 
	d="
M604.017944,845.749634 
	C603.697144,845.891052 603.330200,845.735840 602.958801,845.258179 
	C603.293518,845.108154 603.632690,845.280579 604.017944,845.749634 
z"/>
<path fill="#858686" opacity="1.000000" stroke="none" 
	d="
M605.333191,846.791992 
	C605.091614,846.915710 604.605835,846.805542 604.032898,846.316284 
	C604.326843,846.144226 604.707886,846.351196 605.333191,846.791992 
z"/>
<path fill="#858686" opacity="1.000000" stroke="none" 
	d="
M904.250000,856.750000 
	C904.299988,856.466675 904.600037,856.433350 904.900024,856.400024 
	C904.766663,856.600037 904.633301,856.799988 904.250000,856.750000 
z"/>
<path fill="#858686" opacity="1.000000" stroke="none" 
	d="
M906.250000,856.750000 
	C906.299988,856.466675 906.600037,856.433350 906.900024,856.400024 
	C906.766663,856.600037 906.633362,856.799988 906.250000,856.750000 
z"/>
<path fill="#858686" opacity="1.000000" stroke="none" 
	d="
M544.338379,836.710999 
	C544.207153,837.158569 543.853699,837.299500 542.969727,837.228638 
	C542.998230,836.812683 543.557251,836.608459 544.338379,836.710999 
z"/>
<path fill="#858686" opacity="1.000000" stroke="none" 
	d="
M541.338623,836.710693 
	C541.207458,837.158142 540.854004,837.299133 539.969849,837.228638 
	C539.998230,836.812866 540.557251,836.608582 541.338623,836.710693 
z"/>
<path fill="#B38687" opacity="1.000000" stroke="none" 
	d="
M1015.680115,864.972290 
	C1015.831787,865.283630 1015.705078,865.647949 1015.248840,866.002686 
	C1015.080078,865.670532 1015.240906,865.347961 1015.680115,864.972290 
z"/>
<path fill="#858686" opacity="1.000000" stroke="none" 
	d="
M538.338745,836.710571 
	C538.207520,837.158386 537.854004,837.299438 536.969971,837.228638 
	C536.998413,836.812500 537.557434,836.608154 538.338745,836.710571 
z"/>
<path fill="#B38687" opacity="1.000000" stroke="none" 
	d="
M1014.716370,865.978760 
	C1014.842957,866.268127 1014.690674,866.617554 1014.230042,866.985596 
	C1014.093567,866.682434 1014.265503,866.360596 1014.716370,865.978760 
z"/>
<path fill="#858686" opacity="1.000000" stroke="none" 
	d="
M511.463257,1304.427734 
	C511.443054,1304.408081 511.313599,1304.496826 511.378296,1304.544067 
	C511.442993,1304.591309 511.483459,1304.447266 511.463257,1304.427734 
z"/>
<path fill="#B38687" opacity="1.000000" stroke="none" 
	d="
M1012.640442,868.005920 
	C1012.893494,868.325806 1012.804443,868.732422 1012.417786,869.285156 
	C1012.179565,868.985107 1012.238953,868.538940 1012.640442,868.005920 
z"/>
<path fill="#858686" opacity="1.000000" stroke="none" 
	d="
M1050.996826,797.960449 
	C1051.004639,797.938477 1051.283203,797.884583 1051.283203,797.884583 
	C1051.283203,797.884583 1050.955200,797.804260 1050.991577,797.897034 
	C1051.027954,797.989807 1050.989136,797.982361 1050.996826,797.960449 
z"/>
<path fill="#B38687" opacity="1.000000" stroke="none" 
	d="
M1022.039001,893.290222 
	C1022.329590,893.185059 1022.665039,893.345276 1022.991150,893.795776 
	C1022.682495,893.909302 1022.383179,893.732422 1022.039001,893.290222 
z"/>
<path fill="#B38687" opacity="1.000000" stroke="none" 
	d="
M1022.952148,894.306885 
	C1023.298523,894.153503 1023.681824,894.284485 1024.011230,894.750549 
	C1023.634583,894.920776 1023.311829,894.755920 1022.952148,894.306885 
z"/>
<path fill="#B38687" opacity="1.000000" stroke="none" 
	d="
M1023.947449,895.325867 
	C1024.310425,895.164062 1024.706665,895.284607 1025.023193,895.745361 
	C1024.622681,895.926392 1024.301636,895.767273 1023.947449,895.325867 
z"/>
<path fill="#B38687" opacity="1.000000" stroke="none" 
	d="
M720.550049,718.328247 
	C720.623169,718.327820 720.399231,718.295898 720.364990,718.315430 
	C720.330811,718.334900 720.476929,718.328674 720.550049,718.328247 
z"/>
<path fill="#858686" opacity="1.000000" stroke="none" 
	d="
M418.993561,979.333252 
	C419.404907,979.072388 419.874786,979.174683 420.386230,979.670776 
	C419.969208,979.941833 419.510681,979.819153 418.993561,979.333252 
z"/>
<path fill="#D7ACAD" opacity="1.000000" stroke="none" 
	d="
M567.140991,680.048828 
	C567.083618,680.225342 567.131287,680.523743 567.445679,680.708496 
	C567.477539,680.540527 567.322083,680.399109 567.140991,680.048828 
z"/>
<path fill="#D7ACAD" opacity="1.000000" stroke="none" 
	d="
M546.410828,672.494995 
	C546.444641,672.492737 546.358398,672.393799 546.320251,672.393616 
	C546.282104,672.393433 546.377014,672.497192 546.410828,672.494995 
z"/>
<path fill="#858686" opacity="1.000000" stroke="none" 
	d="
M1057.488037,657.515503 
	C1057.502563,657.535278 1057.473511,657.495728 1057.488037,657.515503 
z"/>
<path fill="#B38687" opacity="1.000000" stroke="none" 
	d="
M635.167358,874.232361 
	C642.627930,874.089600 650.501526,874.045532 658.863525,874.113037 
	C651.428040,874.260071 643.504150,874.295532 635.167358,874.232361 
z"/>
<path fill="#B38687" opacity="1.000000" stroke="none" 
	d="
M627.854248,874.328308 
	C627.927734,874.188904 628.196777,874.142151 628.875000,874.131348 
	C628.872803,874.251831 628.461304,874.336426 627.854248,874.328308 
z"/>
<path fill="#B38687" opacity="1.000000" stroke="none" 
	d="
M631.937012,874.230713 
	C632.008667,874.100586 632.253662,874.060669 632.867554,874.080566 
	C632.861023,874.200562 632.485718,874.260803 631.937012,874.230713 
z"/>
</svg>